<svg xmlns="http://www.w3.org/2000/svg" xml:space="preserve" style="fill-rule:evenodd;clip-rule:evenodd;stroke-linejoin:round;stroke-miterlimit:2" viewBox="0 0 100 100"><path d="M514.688 180.696c-.274.443-5.068 15.431-10.652 33.305-5.585 17.875-10.603 32.949-11.151 33.499-.628.629-14.227 1-36.691 1-32.748 0-35.694.139-35.694 1.678 0 1.058 10.42 9.089 28.164 21.706 15.49 11.016 28.469 20.522 28.843 21.127.373.604-4.368 16.184-10.536 34.621-11.739 35.089-12.247 37.819-6.372 34.254 1.408-.854 14.112-10.103 28.231-20.553 14.118-10.45 26.202-19.308 26.851-19.683.68-.393 7.895 4.322 17 11.108 32.787 24.44 41.383 30.432 42.847 29.87.81-.311 1.472-.995 1.472-1.521 0-.526-4.95-15.502-10.999-33.281-6.049-17.779-10.99-33.001-10.979-33.826.012-.825 1.699-2.657 3.749-4.07 31-21.369 54.229-38.639 54.229-40.318 0-1.891-.833-1.921-35.943-1.278-27.38.501-36.136.373-36.75-.537-.444-.658-5.54-16.064-11.325-34.236-7.746-24.334-10.949-33.124-12.156-33.356-.902-.174-1.864.047-2.138.491M88.512 300.98c-1.166 1.886 6.654 28.893 9.392 32.437 1.428 1.848 11.505 13.073 22.395 24.946 16.296 17.767 20.453 21.762 23.5 22.581 8.596 2.309 73.813 17.056 75.432 17.056 2.856 0 2.047-3.679-3.062-13.925l-4.698-9.426-29.077-18.074c-15.992-9.941-40.286-25.047-53.985-33.567-40.509-25.196-38.593-24.137-39.897-22.028m63.491.77c.002 1.798 3.569 15.665 7.027 27.324l1.95 6.573 17.76 10.573c9.768 5.815 18.821 11.111 20.117 11.769 5.051 2.563 4.548-.399-2.995-17.629l-7.362-16.817-16.5-11.741c-16.338-11.625-20.002-13.467-19.997-10.052m709.759 9.55c-8.656 6.172-16.392 12.154-17.191 13.295-.799 1.14-4.478 8.914-8.177 17.274-4.885 11.042-6.424 15.501-5.626 16.299 1.22 1.22 3.355.122 26.977-13.88l14.245-8.444 1.967-6.672c7.712-26.156 8.265-29.2 5.293-29.132-.962.022-8.832 5.089-17.488 11.26m56.146 3.516c-33.685 20.966-68.168 42.387-83.304 51.751l-13.04 8.067-4.327 8.783C811.86 394.332 810.963 398 813.672 398c1.838 0 20.876-4.206 59.828-13.218l18-4.165 6.029-6.058c14.077-14.148 37.14-39.945 39.194-43.842 2.65-5.028 8.741-28.158 7.81-29.663-.358-.58-1.187-1.024-1.842-.988-.655.037-11.807 6.675-24.783 14.75M203 337.633c0 1.027 5.878 14.692 13.061 30.367a16326.648 16326.648 0 0 1 19.639 43c3.618 7.975 7.155 15.336 7.86 16.359.704 1.022 13.425 10.961 28.268 22.085l26.987 20.226 24.313 25.915c13.372 14.253 25.938 27.49 27.925 29.415 3.188 3.089 17.636 13.182 87.621 61.214 9.445 6.482 17.883 11.786 18.75 11.786 2.127 0 2.084-2.777-.914-59.464-2.868-54.224-.954-47.444-16.01-56.727-20.276-12.502-61.616-38.129-86.5-53.624-14.575-9.075-40.45-25.14-57.5-35.699a60549.236 60549.236 0 0 1-60.439-37.485c-16.192-10.058-30.254-18.5-31.25-18.761-1.27-.332-1.811.084-1.811 1.393m609.5 7.707c-8.25 5.106-39.525 24.519-69.5 43.14-113.153 70.294-149.669 92.945-155.143 96.235-9.531 5.728-8.587 1.256-11.37 53.882-2.998 56.678-3.039 59.403-.901 59.403.872 0 9.985-5.768 20.25-12.819 30.254-20.779 67.016-46.148 76.282-52.642 6.251-4.381 13.497-11.256 26.39-25.039 33.173-35.465 36.211-38.269 63.999-59.046 14.304-10.695 26.513-20.256 27.131-21.246.618-.99 5.63-11.679 11.137-23.754l12.752-27.954a9253.41 9253.41 0 0 1 9.606-20.905c6.847-14.862 7.985-18.621 5.617-18.566-.687.016-8 4.206-16.25 9.311m-299.011 28.266c-1.318 1.423-3.084 4.456-3.923 6.741-.84 2.284-2.455 6.706-3.59 9.827-1.134 3.12-3.956 8.05-6.269 10.955l-4.207 5.282-1.14 14.544-1.14 14.545-16.226 28.322-16.227 28.321 3.159 59.179c4.243 79.481 4.94 91.578 5.518 95.678.271 1.925.141 4.066-.289 4.757-.43.691-14.928 11.275-32.218 23.519-17.29 12.244-31.437 22.928-31.437 23.743 0 1.724 10.509 7.632 15.225 8.56 2.739.539 4.822-.299 13.827-5.563 5.83-3.408 10.846-5.951 11.146-5.652.299.3-1.553 3.822-4.115 7.827-2.563 4.006-4.53 8.189-4.371 9.296.199 1.392 2.602 3.156 7.788 5.717 4.125 2.038 8.099 3.725 8.832 3.75.733.025 5.365-3.834 10.295-8.576 4.929-4.742 9.201-8.384 9.492-8.092.291.291-.876 5.595-2.595 11.786-2.552 9.196-2.886 11.481-1.824 12.485 2.174 2.054 15.057 7.281 16.542 6.712.765-.294 4.624-5.312 8.575-11.152L501.5 715.5l.5 14c.275 7.7.87 14.573 1.323 15.272.452.7 3.568 2.658 6.922 4.352l6.1 3.079 5.877-2.809c3.233-1.545 6.418-3.458 7.078-4.251.749-.899 1.388-6.745 1.7-15.542l.5-14.101 7.183 10.617c3.951 5.84 7.823 10.863 8.604 11.163 1.628.625 15.598-5.477 16.73-7.307.413-.669-.58-6.153-2.206-12.188-1.627-6.034-2.769-11.16-2.538-11.391.23-.23 4.575 3.412 9.655 8.093 5.081 4.682 9.625 8.513 10.099 8.513 1.822 0 15.538-6.748 16.78-8.255 1.113-1.352.548-2.796-3.819-9.764-2.819-4.498-4.904-8.399-4.633-8.669.271-.271 5.263 2.296 11.093 5.704 9.005 5.264 11.088 6.102 13.827 5.563 3.992-.785 14.967-6.651 15.478-8.271.416-1.323-2.824-3.758-38.52-28.946-13.596-9.594-24.983-18.212-25.305-19.152-.323-.941-.229-6.66.208-12.71.874-12.108 3.923-66.684 6.43-115.13l1.612-31.129-6.729-11.871A8221.763 8221.763 0 0 0 550.413 454c-4.569-7.975-8.955-16.075-9.746-18-.803-1.954-1.754-9.127-2.152-16.238-.687-12.242-.838-12.899-3.865-16.886-5.476-7.21-6.566-9.203-8.629-15.773-2.344-7.47-6.289-14.608-8.551-15.476-.978-.375-2.5.381-3.981 1.979m-440.025.453c-.763 1.234.962 3.782 14.784 21.823L98.5 409.265l27.348 14.54 27.348 14.541 13.521-1.746c25.96-3.354 65.719-9.636 66.608-10.525 1.275-1.275-5.38-17.079-7.825-18.585-1.1-.677-12.125-3.522-24.5-6.321a53374.587 53374.587 0 0 1-102.136-23.221c-23.269-5.322-24.407-5.496-25.4-3.889M942 376.129c-12.506 2.973-22.009 5.137-94 21.402-21.175 4.784-39.406 9.262-40.513 9.951-2.527 1.573-9.15 17.255-7.841 18.564.893.893 49.844 8.524 70.854 11.046l10 1.201 11-5.997c6.05-3.298 18.34-9.934 27.31-14.746l16.311-8.749 12.439-16.559c6.842-9.108 12.44-17.163 12.44-17.901 0-1.96-3.834-1.579-18 1.788m-715 57.909c-2.475.441-18.45 2.848-35.5 5.349-37.305 5.472-83.761 12.397-88.25 13.155-2.215.374-3.232 1.092-3.194 2.253.057 1.76 2.111 3.492 22.444 18.932l12 9.112 12.778 2.003c7.813 1.224 13.835 1.699 15.5 1.221 2.469-.71 60.057-23.439 83.222-32.847 5.726-2.325 9.622-4.489 9.806-5.447.199-1.033-2.922-3.899-8.905-8.179-9.753-6.977-10.595-7.212-19.901-5.552m559.437 5.259c-5.987 4.218-8.937 6.934-8.937 8.227 0 1.614 7.729 5.006 47.213 20.719l47.212 18.789 13.288-2.058 13.287-2.059 12-9.171c6.6-5.044 14.361-10.987 17.246-13.208 2.886-2.22 5.248-4.773 5.25-5.675.005-1.985 3.35-1.356-46.996-8.844a145738.39 145738.39 0 0 1-64-9.532c-12.925-1.93-24.203-3.504-25.063-3.497-.86.007-5.585 2.846-10.5 6.309m-394.812 1.501c-.271.439-.185 1.282.191 1.873 1.296 2.039 64.198 40.538 65.448 40.058 1.426-.547 13.736-21.635 13.736-23.531 0-1.929-3.046-2.878-24.5-7.632-11-2.438-27.048-6.037-35.662-7.999-16.566-3.773-18.427-4.041-19.213-2.769M629 441.95c-4.125.973-20.1 4.588-35.5 8.033-28.769 6.436-31.5 7.239-31.5 9.272 0 2.038 12.203 22.609 13.768 23.21 1.911.733 66.232-39.145 66.232-41.063 0-1.834-3.532-1.685-13 .548m-435.74 39.412c-38.083 15.52-69.788 28.766-70.458 29.436-2.1 2.1.766 3.612 21.011 11.079L163.126 529l14.687-.007c8.078-.004 17.672-.289 21.32-.634l6.633-.626 39.867-27.626c29.299-20.303 39.867-28.14 39.867-29.566 0-2.178-18.966-17.588-21.5-17.469-.825.039-32.658 12.769-70.74 28.29M759 459.566c-10.702 8.197-12.414 9.912-11.716 11.731.309.806 18.377 13.781 40.151 28.834 45.373 31.367 38.872 28.568 66.796 28.76l15.732.109 20.518-7.601c12.003-4.447 20.519-8.131 20.519-8.878 0-1.982-1.44-2.739-18-9.466-103.308-41.965-123.41-50.051-124.375-50.027-.619.015-4.95 2.957-9.625 6.538m-475.559 23.052C236.57 514.169 215 529.331 215 530.726c0 2.725 14.422 38.499 15.722 38.997.675.26 9.002-2.237 18.503-5.547C350.811 528.782 344 531.288 344 529.295c0-.859-4.224-6.114-9.387-11.678-20.83-22.449-38.893-41.133-40.029-41.404-.661-.157-5.676 2.725-11.143 6.405m445.376 2.632c-4.721 5.087-15.611 16.67-24.2 25.739-8.59 9.068-15.617 17.221-15.617 18.117 0 1.978 1.491 2.545 64.254 24.444 26.264 9.163 48.338 16.437 49.053 16.163 1.357-.521 15.693-36.114 15.693-38.964 0-1.696-7.645-7.132-52.923-37.626-13.983-9.418-25.93-17.123-26.55-17.123-.62 0-4.989 4.163-9.71 9.25M298 554.607c-24.475 8.541-47.425 16.553-51 17.804-4.768 1.668-6.5 2.757-6.5 4.084 0 1.364 10.354 7.31 42 24.119 23.1 12.27 42.547 22.327 43.215 22.348.668.021 1.619-.75 2.114-1.712 1.694-3.3 19.386-79.247 18.81-80.749-.317-.826-1.378-1.484-2.358-1.463-.979.022-21.806 7.027-46.281 15.569m388-13.566c0 1.122 3.331 15.859 7.402 32.75 4.072 16.89 8.213 34.236 9.204 38.546 2.801 12.188 2.52 12.068 14.07 6.016 49.605-25.992 68.461-35.936 72.133-38.038 5.116-2.93 5.176-5.082.191-6.874-1.925-.692-23.75-8.286-48.5-16.876-24.75-8.59-46.034-16.056-47.297-16.591-4.004-1.697-7.203-1.223-7.203 1.067m-20.813 12.03C625.348 594.902 581 642.619 581 643.654c0 .675.388 1.468.863 1.761.474.293 16.562-2.152 35.75-5.435 19.188-3.282 44.787-7.612 56.887-9.62 12.1-2.009 22.603-4.205 23.34-4.882 1.112-1.02.376-5.045-4.314-23.604-11.979-47.398-14.717-57.421-16.063-58.803-1.199-1.23-2.902.157-12.276 10m-310.584-9.238c-.528.855-18.351 70.103-20.051 77.904-.606 2.781-.378 3.376 1.621 4.228 3.674 1.566 113.864 20.13 115.068 19.386 1.935-1.196-.026-4.005-10.491-15.034-6.187-6.521-21.6-22.872-34.25-36.334-46.82-49.829-50.123-53.021-51.897-50.15M386 561.06c0 .583 2.166 3.395 4.814 6.25a26111.36 26111.36 0 0 0 19.75 21.24c8.215 8.828 22.113 23.776 30.885 33.22 8.772 9.443 16.52 17.388 17.218 17.656.698.268 1.598-.046 2-.696.792-1.282.559-25.134-.273-27.947-.396-1.338-41.864-30.738-67.876-48.122-4.19-2.8-6.518-3.372-6.518-1.601m241.386 10.564c-46.131 31.757-54.218 37.496-54.736 38.846-1.08 2.815-.893 27.687.216 28.796 1.21 1.21 2.575-.11 24.634-23.804 42.669-45.832 49.07-52.78 49.8-54.06 2.18-3.822-4.471-.408-19.914 10.222" style="fill:#fafafb" transform="matrix(.1102 0 0 .1207 -6.937 -6.266)"/></svg>