<?xml version="1.0" encoding="UTF-8" standalone="no"?>
<!DOCTYPE svg PUBLIC "-//W3C//DTD SVG 1.1//EN" "http://www.w3.org/Graphics/SVG/1.1/DTD/svg11.dtd">
<svg width="100%" height="100%" viewBox="0 0 100 100" version="1.1" xmlns="http://www.w3.org/2000/svg" xmlns:xlink="http://www.w3.org/1999/xlink" xml:space="preserve" xmlns:serif="http://www.serif.com/" style="fill-rule:evenodd;clip-rule:evenodd;stroke-linejoin:round;stroke-miterlimit:2;">
    <g id="watermark_1_">
    </g>
    <g transform="matrix(0.1,0,0,0.1,0,0)">
        <g transform="matrix(1.245546,0,0,1.245546,-123.272623,-122.273008)">
            <path d="M868.915,635.327C867.919,638.975 866.403,642.433 865.011,645.934C858.215,663.021 850.215,679.533 841.044,695.467C830.734,713.381 819.102,730.397 806.121,746.49C799.333,754.905 792.163,762.981 784.774,770.866C783.968,771.727 783.048,772.481 782.181,773.285C779.9,772.979 778.793,771.064 777.421,769.629C763.952,755.542 749.366,742.741 733.648,731.219C718.371,720.021 702.297,710.148 685.486,701.401C658.03,687.114 629.24,676.443 599.244,668.984C581.195,664.496 562.896,661.361 544.389,659.44C534.3,658.393 524.201,657.746 514.054,657.439C508.129,657.26 502.196,656.774 496.268,656.959C468.279,657.836 440.509,660.571 413.111,666.659C387.079,672.443 361.861,680.633 337.478,691.418C314.08,701.767 292.013,714.431 271.248,729.374C253.841,741.9 237.77,755.958 222.863,771.365C221.691,772.576 220.7,774.126 218.792,774.384C214.541,770.541 210.825,766.188 207.002,761.942C193.188,746.598 180.713,730.22 169.511,712.882C158.022,695.1 147.969,676.534 139.571,657.091C137.179,651.553 134.97,645.936 132.715,640.341C132.317,639.355 131.803,638.383 131.792,637.271C133.496,612.026 141.452,588.705 153.644,566.72C164.33,547.45 177.751,530.158 192.241,513.637C203.347,500.974 214.957,488.794 226.615,476.643C239.241,463.483 252.001,450.443 264.347,437.017C284.234,415.389 303.368,393.129 320.467,369.186C331.593,353.607 341.919,337.518 350.466,320.383C364.362,292.527 373.838,263.275 377.419,232.228C378.769,220.526 379.752,208.797 379.199,197.035C378.212,176.051 375.479,155.332 368.513,135.357C367.882,133.549 366.869,132.131 365.604,130.802C366.776,129.991 368.173,129.734 369.479,129.269C389.644,122.092 410.295,116.731 431.359,112.99C439.745,111.501 448.186,110.335 456.664,109.429C466.002,108.431 475.357,107.808 484.738,107.371C493.05,106.984 501.359,106.883 509.661,107.14C518.283,107.407 526.901,107.882 535.503,108.681C543.67,109.44 551.812,110.38 559.91,111.625C574.417,113.854 588.755,116.924 602.921,120.786C613.123,123.568 623.195,126.762 633.146,130.335C633.543,130.477 633.907,130.71 634.286,130.9C630.974,140.273 628.222,149.796 626.301,159.563C622.827,177.23 621.316,195.084 622.179,213.034C623.82,247.179 632.052,279.747 646.281,310.867C660.141,341.179 679.161,368.117 699.794,394.029C710.422,407.377 721.641,420.22 733.219,432.763C744.423,444.901 755.867,456.803 767.271,468.75C786.124,488.499 805.298,507.972 822.25,529.452C833.722,543.988 844.18,559.187 852.385,575.828C861.008,593.317 866.498,611.776 868.981,631.125C869.165,632.539 868.824,633.925 868.915,635.327Z" style="fill:white;fill-rule:nonzero;"/>
        </g>
        <g transform="matrix(1.245546,0,0,1.245546,-123.272623,-122.273008)">
            <path d="M665.367,856.419C661.343,858.755 657,860.409 652.738,862.216C635.115,869.688 617.027,875.801 598.486,880.569C584.672,884.121 570.712,886.922 556.589,888.952C548.033,890.182 539.445,891.08 530.845,891.878C527.19,892.217 523.52,892.45 519.852,892.589C506.566,893.092 493.272,893.191 479.992,892.559C471.258,892.143 462.542,891.389 453.851,890.325C446.453,889.419 439.079,888.387 431.738,887.117C416.188,884.427 400.874,880.745 385.769,876.176C362.552,869.153 340.218,859.984 318.696,848.806C291.535,834.7 266.448,817.547 243.25,797.608C242.52,796.981 241.886,796.243 241.207,795.557C241.345,792.97 243.462,792.049 245.2,790.806C251.12,786.841 256.645,782.336 262.542,778.33C284.669,763.296 308.458,751.625 333.796,743.161C354.454,736.26 375.663,731.883 397.362,729.677C411.375,728.252 425.416,728.015 439.41,728.628C462.78,729.651 485.749,733.587 508.2,740.339C524.69,745.298 540.633,751.604 556.019,759.327C577.166,769.942 596.674,783.011 614.681,798.359C633.444,814.351 649.787,832.518 663.928,852.688C664.706,853.796 665.907,854.785 665.367,856.419Z" style="fill-rule:nonzero;"/>
        </g>
        <g transform="matrix(1.245546,0,0,1.245546,-123.272623,-122.273008)">
            <path d="M365.604,130.804C367.149,130.857 368.043,131.449 368.615,133.094C371.585,141.639 373.938,150.324 375.687,159.208C376.577,163.733 377.361,168.28 377.986,172.83C378.362,175.567 378.658,178.368 378.898,181.146C379.205,184.688 379.062,188.272 379.549,191.755C380.543,198.866 379.796,205.975 380.077,213.075C379.177,216.351 379.779,219.745 379.343,223.032C378.835,226.863 378.723,230.739 378.066,234.532C377.463,238.014 377.063,241.525 376.393,245.002C375.704,248.579 374.965,252.152 374.343,255.741C373.625,259.882 372.49,263.916 371.427,267.957C369.923,273.673 368.15,279.33 366.233,284.923C364.35,290.417 362.174,295.812 360.071,301.229C358.081,306.357 355.553,311.247 353.323,316.266C351.216,321.008 348.642,325.49 346.25,330.065C343.811,334.729 341.1,339.262 338.309,343.746C334.781,349.413 331.234,355.065 327.478,360.579C324.21,365.376 320.796,370.075 317.391,374.777C314.618,378.606 311.832,382.424 308.816,386.076C306.014,389.469 303.453,393.059 300.732,396.52C299.338,398.294 297.808,399.961 296.372,401.703C294.801,403.608 293.238,405.521 291.726,407.474C290.407,409.177 288.849,410.667 287.475,412.326C285.766,414.387 284.05,416.471 282.224,418.449C279.162,421.767 276.047,425.043 273.272,428.615C273.14,428.785 272.998,428.953 272.838,429.095C268.88,432.621 265.768,436.937 262.002,440.65C259.399,443.217 257.061,446.051 254.53,448.695C252.066,451.269 249.288,453.574 247.037,456.316C242.773,461.508 237.612,465.813 233.164,470.797C227.843,476.76 221.953,482.171 216.61,488.088C213.499,491.534 209.981,494.609 207.11,498.222C204.42,501.607 200.917,504.237 198.556,507.887C198.326,508.243 197.957,508.507 197.665,508.825C195.19,511.522 192.64,514.155 190.266,516.937C187.548,520.122 184.989,523.443 182.357,526.701C179.454,530.295 176.371,533.76 173.683,537.507C169.986,542.66 166.216,547.767 162.802,553.126C160.198,557.214 157.732,561.378 155.271,565.551C152.195,570.767 149.612,576.229 146.995,581.667C144.522,586.806 142.577,592.179 140.784,597.603C139.298,602.099 137.779,606.585 136.727,611.203C135.656,615.905 134.541,620.615 133.851,625.38C133.47,628.012 132.799,630.655 133.041,633.386C133.165,634.789 132.699,636.133 131.791,637.27C129.968,633.466 128.78,629.424 127.44,625.447C121.301,607.227 116.547,588.641 113.158,569.719C111.675,561.44 110.503,553.11 109.56,544.744C108.314,533.692 107.57,522.611 107.134,511.505C107.075,510.003 107.186,508.494 107.219,506.988C109.151,507.551 108.453,509.197 108.595,510.454C108.738,511.716 108.538,512.99 108.23,514.213C109.34,510.267 111.431,506.801 113.393,503.301C118.014,495.058 124.01,487.845 130.379,480.912C150.331,459.192 169.027,436.451 186.081,412.37C199.873,392.895 213.437,373.263 225.581,352.711C240.829,326.906 252.739,299.702 258.845,270.194C261.189,258.867 262.652,247.397 262.491,235.835C262.295,221.755 260.664,207.845 255.242,194.646C255.035,194.142 254.92,193.618 254.828,193.085C258.026,190.022 261.665,187.507 265.197,184.871C293.087,164.048 323.23,147.245 355.593,134.438C358.891,133.132 362.15,131.692 365.604,130.804Z" style="fill-rule:nonzero;"/>
        </g>
        <g transform="matrix(1.245546,0,0,1.245546,-123.272623,-122.273008)">
            <path d="M868.915,635.327C868.733,635.067 868.382,634.799 868.393,634.547C868.499,632.157 867.858,629.854 867.579,627.514C867.225,624.538 866.617,621.591 866.063,618.641C864.933,612.62 863.395,606.69 861.602,600.844C860.247,596.426 858.522,592.113 856.791,587.822C854.775,582.826 852.62,577.883 850.117,573.104C845.864,564.987 841.187,557.123 835.976,549.583C833.102,545.425 830.271,541.232 827.25,537.181C824.49,533.479 821.516,529.934 818.608,526.344C815.768,522.838 812.935,519.324 810.017,515.884C807.929,513.423 805.557,511.193 803.573,508.655C800.515,504.741 796.656,501.571 793.653,497.605C792.296,495.813 790.464,494.385 788.905,492.738C785.943,489.608 783.065,486.4 780.074,483.299C777.075,480.189 773.745,477.368 770.981,474.067C766.39,468.586 760.892,464.002 756.2,458.657C751.993,453.864 747.273,449.578 743.053,444.827C740.544,442.002 737.773,439.424 735.374,436.53C733.025,433.696 730.311,431.226 727.924,428.457C724.692,424.708 721.403,421.015 718.095,417.333C714.866,413.739 711.902,409.909 708.797,406.202C706.312,403.235 703.748,400.334 701.299,397.339C698.647,394.095 696.05,390.803 693.497,387.48C690.29,383.306 687.145,379.083 683.986,374.872C682.566,372.98 681.114,371.108 679.782,369.155C674.869,361.953 669.898,354.788 665.154,347.476C662.463,343.327 660.033,339.001 657.581,334.694C654.272,328.88 651.023,323.038 648.186,316.985C644.531,309.185 641.004,301.332 638.035,293.227C636.144,288.066 634.387,282.865 632.706,277.638C630.402,270.476 628.656,263.165 626.998,255.825C626.17,252.16 625.594,248.452 624.772,244.789C624.304,242.705 624.329,240.504 623.802,238.44C623.158,235.92 623.496,233.29 622.704,230.801C622.483,230.105 622.576,229.303 622.562,228.548C622.536,227.148 622.59,225.762 622.086,224.393C621.836,223.715 621.938,222.901 621.914,222.147C621.837,219.678 622.152,217.187 621.339,214.762C621.142,214.175 621.267,213.476 621.267,212.828C621.263,206.454 621.265,200.08 621.264,193.706C621.264,192.519 621.215,191.33 621.704,190.198C621.829,189.91 621.896,189.56 621.868,189.249C621.538,185.566 622.426,181.964 622.588,178.312C622.688,176.068 622.879,173.786 623.416,171.616C623.936,169.514 624.025,167.371 624.399,165.263C625.073,161.458 625.924,157.694 626.645,153.902C627.59,148.931 629.223,144.144 630.502,139.263C631.154,136.775 632.225,134.396 633.124,131.974C633.323,131.439 633.807,131.159 634.285,130.897C635.505,131.306 636.738,131.681 637.943,132.13C669.727,143.987 699.369,159.886 727.038,179.478C732.314,183.214 737.429,187.181 742.584,191.085C743.688,191.921 744.89,192.673 745.725,193.83C745.782,194.703 745.652,195.535 745.349,196.368C740.035,210.992 738.186,226.177 738.872,241.602C739.83,263.127 744.622,283.918 752.223,304.058C761.15,327.712 773.012,349.843 786.967,370.894C800.098,390.702 813.344,410.428 827.683,429.391C839.737,445.331 852.464,460.712 866.022,475.408C875.764,485.967 885.19,496.793 891.404,510.079C891.775,508.477 890.673,506.548 892.833,505.686C893.181,509.464 892.867,513.237 892.672,517.005C892.421,521.857 892.073,526.704 891.718,531.55C890.841,543.508 889.278,555.379 887.258,567.198C883.484,589.273 877.815,610.845 870.292,631.934C870.039,632.644 869.735,633.335 869.455,634.036C869.177,634.424 869.282,634.974 868.913,635.323L868.915,635.327Z" style="fill-rule:nonzero;"/>
        </g>
        <g transform="matrix(1.245546,0,0,1.245546,-123.272623,-122.273008)">
            <path d="M665.367,856.419C664.089,853.91 662.249,851.778 660.644,849.493C658.358,846.239 655.973,843.048 653.495,839.938C650.882,836.658 647.959,833.617 645.453,830.261C643.054,827.049 639.827,824.602 637.571,821.284C637.152,820.668 636.543,820.179 636.009,819.644C632.575,816.204 629.285,812.604 625.66,809.379C622.204,806.304 618.977,802.978 615.327,800.107C612.032,797.515 608.981,794.614 605.72,791.977C602.794,789.612 599.796,787.323 596.709,785.173C591.144,781.298 585.542,777.47 579.856,773.777C575.071,770.668 570.194,767.695 565.107,765.086C560.887,762.921 556.729,760.635 552.489,758.512C545.261,754.893 537.82,751.741 530.281,748.835C525.261,746.9 520.188,745.094 515.089,743.377C506.323,740.425 497.387,738.024 488.369,736.016C483.149,734.854 477.892,733.741 472.546,733.134C469.038,732.736 465.594,731.693 462.084,731.43C459.295,731.221 456.573,730.381 453.745,730.611C453.111,730.663 452.412,730.64 451.827,730.424C450.354,729.881 448.845,730.029 447.341,729.985C445.408,729.929 443.466,730.12 441.565,729.48C440.877,729.248 440.067,729.35 439.313,729.349C430.133,729.342 420.953,729.343 411.773,729.345C410.587,729.345 409.401,729.314 408.257,729.756C407.866,729.907 407.405,729.967 406.985,729.939C403.198,729.685 399.47,730.379 395.721,730.669C392.948,730.884 390.2,731.401 387.437,731.752C385.627,731.982 383.823,732.218 382.018,732.504C375.448,733.542 368.918,734.744 362.411,736.137C356.627,737.376 350.906,738.862 345.247,740.515C340.302,741.96 335.353,743.443 330.498,745.242C325.148,747.224 319.773,749.132 314.502,751.319C312.414,752.185 310.295,752.983 308.25,753.941C303.075,756.364 297.871,758.736 292.796,761.356C285.905,764.913 279.1,768.637 272.604,772.898C269.092,775.201 265.507,777.394 262.018,779.73C256.922,783.142 252.014,786.82 247.188,790.602C246.585,791.075 246.043,791.595 245.211,791.562C244.32,789.67 245.923,788.795 246.881,787.783C264.739,768.913 284.844,752.859 307.178,739.57C331.826,724.904 357.976,713.751 385.425,705.513C407.321,698.941 429.629,694.406 452.306,691.72C462.048,690.566 471.843,689.932 481.658,689.427C490.301,688.982 498.931,688.806 507.554,688.988C528.834,689.437 549.986,691.406 570.967,695.109C589.087,698.307 606.915,702.716 624.376,708.461C647.322,716.011 669.312,725.761 690.215,737.951C704.915,746.524 718.761,756.287 731.728,767.263C740.881,775.011 749.451,783.405 757.309,792.492C758.061,793.362 759.107,794.138 758.782,795.547C758.266,796.092 757.794,796.688 757.228,797.175C736.71,814.814 714.722,830.353 691.071,843.524C683.433,847.777 675.641,851.722 667.761,855.5C666.993,855.87 666.166,856.116 665.367,856.419Z" style="fill:white;fill-rule:nonzero;"/>
        </g>
        <g transform="matrix(1.245546,0,0,1.245546,-123.272623,-122.273008)">
            <path d="M254.827,193.085C255.544,193.428 255.999,193.955 256.252,194.739C257.275,197.91 258.532,201.018 259.357,204.238C260.421,208.39 261.433,212.593 261.937,216.838C262.315,220.02 263.086,223.204 262.763,226.468C262.658,227.534 262.757,228.608 263.097,229.668C263.322,230.37 263.36,231.152 263.366,231.9C263.394,235.033 263.379,238.166 263.379,241.299C263.379,242.165 263.354,243.021 263.042,243.852C262.893,244.249 262.759,244.698 262.789,245.11C263.048,248.683 262.389,252.196 262.053,255.722C261.748,258.92 261.203,262.1 260.655,265.268C259.539,271.723 258.03,278.096 256.257,284.399C254.655,290.094 253.057,295.793 250.858,301.304C249.343,305.102 247.99,308.964 246.52,312.781C245.785,314.689 244.982,316.572 244.158,318.444C240.985,325.656 237.578,332.765 233.833,339.69C229.787,347.17 225.54,354.537 221.056,361.779C213.626,373.78 205.654,385.415 197.804,397.132C193.615,403.384 188.994,409.344 184.735,415.551C179.744,422.827 174.284,429.753 168.983,436.792C166.082,440.644 163.248,444.588 159.9,448.108C158.574,449.502 157.489,451.128 156.329,452.675C154.907,454.572 153.137,456.154 151.713,458.071C149.988,460.394 147.662,462.28 146.001,464.641C143.748,467.843 140.431,470.07 138.371,473.405C138.315,473.496 138.238,473.577 138.157,473.648C135.144,476.291 132.757,479.514 130.076,482.461C124.499,488.593 119.233,494.974 114.999,502.158C112.487,506.421 110.444,510.914 108.19,515.29C108.066,515.273 107.931,515.292 107.896,515.242C107.841,515.162 107.839,515.036 107.838,514.929C107.816,513.093 107.81,511.256 107.772,509.42C107.755,508.577 107.963,507.669 107.216,506.987C106.897,500.835 107.001,494.678 107.137,488.526C107.387,477.184 108.295,465.889 109.574,454.615C111.146,440.763 113.474,427.046 116.53,413.451C121.417,391.713 128.11,370.544 136.644,349.958C149.654,318.573 166.431,289.356 187.007,262.319C203.418,240.756 221.853,221.088 242.301,203.314C246.37,199.779 250.379,196.16 254.827,193.085Z" style="fill:white;fill-rule:nonzero;"/>
        </g>
        <g transform="matrix(1.245546,0,0,1.245546,-123.272623,-122.273008)">
            <path d="M758.782,795.549C756.897,793.342 755.104,791.047 753.105,788.948C749.829,785.508 746.415,782.199 743.066,778.828C738.886,774.621 734.432,770.726 729.894,766.909C720.408,758.929 710.453,751.592 700.016,744.919C694.482,741.381 688.785,738.107 683.054,734.888C677.688,731.873 672.157,729.2 666.667,726.44C659.25,722.712 651.601,719.497 643.881,716.465C638.072,714.183 632.231,711.955 626.308,709.996C620.392,708.039 614.45,706.133 608.396,704.608C602.354,703.085 596.365,701.338 590.291,699.964C585.275,698.829 580.285,697.544 575.166,696.858C572.301,696.474 569.484,695.751 566.632,695.252C564.521,694.882 562.388,694.637 560.267,694.319C558.041,693.984 555.8,693.714 553.599,693.255C551.697,692.859 549.687,693.361 547.86,692.488C545.042,692.649 542.322,691.722 539.516,691.734C538.33,691.739 537.144,691.766 535.999,691.327C535.607,691.176 535.152,691.12 534.729,691.131C529.443,691.279 524.223,690.054 518.923,690.404C517.428,690.503 515.921,690.474 514.434,689.999C513.639,689.745 512.725,689.825 511.864,689.824C503.981,689.813 496.097,689.813 488.214,689.824C487.353,689.825 486.438,689.738 485.643,689.992C484.156,690.467 482.658,690.368 481.154,690.429C477.718,690.568 474.256,690.111 470.847,691.007C469.934,691.247 468.912,691.067 467.941,691.089C466.329,691.125 464.698,690.952 463.142,691.588C462.854,691.706 462.498,691.73 462.183,691.7C459.141,691.406 456.177,692.206 453.198,692.517C450.769,692.771 448.275,692.816 445.862,693.449C444.106,693.91 442.252,693.989 440.452,694.225C434.382,695.019 428.403,696.255 422.391,697.362C414.359,698.841 406.415,700.67 398.524,702.742C394.367,703.834 390.219,704.976 386.112,706.242C380.046,708.112 373.992,710.033 367.984,712.082C361.871,714.168 355.872,716.559 349.915,719.071C341.669,722.55 333.527,726.239 325.572,730.34C317.237,734.637 309.147,739.351 301.172,744.289C293.286,749.172 285.834,754.648 278.414,760.177C275.485,762.359 272.797,764.862 269.95,767.157C261.786,773.74 254.517,781.266 247.171,788.711C246.358,789.535 245.268,790.206 245.209,791.564C243.706,792.727 242.419,794.105 241.205,795.557C237.68,793.083 234.713,789.966 231.564,787.07C227.146,783.007 222.796,778.863 218.788,774.384C222.59,770.547 226.357,766.675 230.197,762.876C240.268,752.913 250.964,743.671 262.203,735.041C274.73,725.422 287.83,716.666 301.494,708.768C311.499,702.985 321.763,697.69 332.277,692.862C345.832,686.637 359.673,681.164 373.829,676.496C388.901,671.526 404.238,667.544 419.799,664.398C426.459,663.052 433.152,661.918 439.85,660.816C443.89,660.152 447.974,659.748 452.043,659.277C457.29,658.67 462.544,658.113 467.794,657.536C468.009,657.512 468.224,657.491 468.44,657.485C474.484,657.329 480.507,656.784 486.552,656.566C493.353,656.32 500.15,656.113 506.951,656.233C512.995,656.34 519.039,656.557 525.075,656.888C530.351,657.178 535.627,657.58 540.881,658.14C546.881,658.779 552.863,659.605 558.842,660.427C563.54,661.073 568.24,661.735 572.908,662.564C588.529,665.34 603.946,668.975 619.141,673.563C632.275,677.529 645.167,682.158 657.816,687.454C663.291,689.746 668.674,692.262 674.054,694.772C683.648,699.249 692.995,704.208 702.142,709.535C710.355,714.319 718.362,719.432 726.17,724.86C734.512,730.659 742.606,736.779 750.434,743.252C755.429,747.382 760.319,751.635 765.025,756.091C770.905,761.659 776.712,767.304 782.177,773.288C781.774,773.788 781.407,774.324 780.96,774.782C774.172,781.731 767.159,788.443 759.827,794.818C759.51,795.094 759.132,795.306 758.782,795.549Z" style="fill-rule:nonzero;"/>
        </g>
        <g transform="matrix(1.245546,0,0,1.245546,-123.272623,-122.273008)">
            <path d="M892.836,505.688C892.407,506.082 892.281,506.589 892.279,507.147C892.274,508.443 892.271,509.74 892.254,511.036C892.249,511.444 892.373,512.048 891.957,512.172C891.242,512.385 891.154,511.683 890.97,511.198C889.626,507.646 887.539,504.49 885.603,501.261C882.833,496.641 879.62,492.321 876.237,488.137C874.412,485.88 872.402,483.771 870.463,481.607C867.161,477.921 863.677,474.396 860.601,470.509C860.334,470.172 860.007,469.882 859.715,469.564C857.24,466.866 854.693,464.229 852.313,461.449C849.659,458.349 847.254,455.034 844.562,451.969C842.287,449.379 840.183,446.661 838.026,443.981C836.071,441.553 834.096,439.14 832.189,436.674C829.626,433.359 827.095,430.018 824.598,426.653C821.652,422.681 818.734,418.687 815.842,414.676C804.005,398.254 792.861,381.36 781.768,364.435C778.938,360.117 776.495,355.547 773.795,351.142C768.655,342.754 764.506,333.848 760.157,325.052C757.151,318.972 754.589,312.686 752.193,306.332C750.254,301.188 748.492,295.988 746.867,290.743C744.834,284.177 742.925,277.576 741.794,270.773C741.302,267.815 740.535,264.902 740.044,261.944C739.658,259.619 739.74,257.199 739.195,254.922C738.283,251.113 739.125,247.167 738.05,243.391C737.85,242.687 737.965,241.888 737.964,241.132C737.956,237.999 737.948,234.866 737.964,231.733C737.972,230.121 737.823,228.499 738.452,226.933C738.644,226.456 738.577,225.868 738.594,225.329C738.887,215.905 741.033,206.832 743.86,197.9C744.306,196.492 744.784,195.042 745.724,193.833L745.732,193.838C745.928,194.099 746.192,194.269 746.48,194.408C750.472,197.188 754.065,200.462 757.724,203.643C775.946,219.483 792.566,236.864 807.589,255.767C822.268,274.237 835.188,293.863 846.356,314.649C856.49,333.51 865.024,353.07 871.937,373.325C877.798,390.499 882.434,408.006 885.849,425.839C887.961,436.871 889.599,447.969 890.798,459.129C891.455,465.244 891.856,471.389 892.247,477.529C892.775,485.828 893.037,494.139 892.968,502.456C892.961,503.535 892.883,504.611 892.836,505.688Z" style="fill:white;fill-rule:nonzero;"/>
        </g>
        <g transform="matrix(1.245546,0,0,1.245546,-123.272623,-122.273008)">
            <path d="M868.916,635.325C868.843,634.789 868.969,634.337 869.458,634.038C869.529,634.573 869.371,635.012 868.916,635.325Z" style="fill:rgb(74,101,142);fill-rule:nonzero;"/>
        </g>
        <g transform="matrix(1.245546,0,0,1.245546,-123.272623,-122.273008)">
            <path d="M746.484,194.409C746.11,194.382 745.869,194.18 745.736,193.839C746.136,193.83 746.379,194.029 746.484,194.409Z" style="fill:rgb(47,76,121);fill-rule:nonzero;"/>
        </g>
        <g transform="matrix(1.245546,0,0,1.245546,-123.272623,-122.273008)">
            <path d="M500.812,347.829C499.908,347.734 499.317,347.432 499.04,346.802C498.651,345.917 498.339,344.994 498.054,344.068C497.291,341.593 496.6,339.096 495.81,336.63C491.166,322.137 481.821,311.527 468.737,304.061C464.983,301.919 461.001,300.243 456.935,298.756C454.303,297.794 451.727,296.689 448.988,296.04C448.475,295.918 447.968,295.666 447.528,295.37C446.61,294.752 446.649,293.226 447.565,292.585C448.47,291.952 449.538,291.723 450.574,291.433C454.842,290.241 459.018,288.808 463.071,286.996C475.766,281.322 485.29,272.296 491.828,260.052C494.486,255.075 496.536,249.871 497.989,244.423C498.267,243.381 498.546,242.332 498.936,241.33C499.23,240.576 499.891,240.156 500.728,240.184C501.432,240.208 502.008,240.608 502.249,241.226C502.679,242.326 502.994,243.473 503.322,244.61C505.857,253.412 509.721,261.565 515.3,268.854C520.844,276.097 527.778,281.658 535.948,285.705C540.997,288.206 546.341,289.92 551.649,291.739C552.358,291.982 553.094,292.219 553.723,292.611C554.674,293.202 554.67,294.797 553.718,295.374C553.084,295.758 552.341,295.967 551.639,296.234C547.204,297.916 542.67,299.32 538.334,301.284C525.673,307.018 516.096,316.009 509.659,328.306C506.755,333.854 504.17,339.553 502.651,345.668C502.49,346.317 502.286,346.934 501.775,347.357C501.463,347.619 501.026,347.73 500.812,347.829Z" style="fill-rule:nonzero;"/>
        </g>
        <g transform="matrix(1.245546,0,0,1.245546,-123.272623,-122.273008)">
            <path d="M500.488,520.442C499.795,520.458 499.276,520.19 499.07,519.685C498.664,518.692 498.362,517.653 498.062,516.62C497.008,512.991 495.831,509.419 494.069,506.049C489.68,497.651 483.252,491.328 474.867,486.973C471.122,485.028 467.177,483.576 463.142,482.359C462.423,482.142 461.704,481.906 461.013,481.615C460.588,481.436 460.422,480.999 460.388,480.558C460.343,479.976 460.568,479.473 461.101,479.227C461.685,478.958 462.309,478.765 462.928,478.582C464.686,478.064 466.473,477.633 468.21,477.054C482.254,472.368 491.646,462.936 496.62,449.051C497.346,447.023 497.894,444.931 498.524,442.869C498.681,442.354 498.791,441.819 499.008,441.331C499.235,440.82 499.659,440.427 500.25,440.459C500.808,440.489 501.286,440.803 501.519,441.328C501.736,441.816 501.872,442.342 502.027,442.856C502.557,444.611 503.061,446.373 503.607,448.122C507.617,460.977 516.045,469.821 528.251,475.221C531.51,476.663 534.915,477.703 538.295,478.811C539.788,479.301 540.34,479.824 540.225,480.599C540.067,481.667 539.144,481.829 538.356,482.144C535.768,483.177 533.183,484.215 530.591,485.237C518.127,490.151 509.719,499.092 504.734,511.384C503.688,513.962 502.174,516.36 501.696,519.171C501.589,519.803 501.115,520.32 500.488,520.442Z" style="fill-rule:nonzero;"/>
        </g>
        <g transform="matrix(1.245546,0,0,1.245546,-123.272623,-122.273008)">
            <path d="M744.195,586.24C744.139,586.71 743.856,587.032 743.444,587.188C742.034,587.723 740.61,588.224 739.193,588.741C733.956,590.653 729.234,593.374 725.351,597.449C723.478,599.414 721.838,601.543 720.543,603.926C718.792,607.148 717.193,610.44 716.142,613.972C716.021,614.378 715.841,614.772 715.638,615.145C715.399,615.584 714.523,615.583 714.236,615.17C713.606,614.261 713.416,613.19 713.137,612.156C712.145,608.478 710.601,605.055 708.462,601.902C704.844,596.568 699.937,592.798 694.101,590.203C691.839,589.197 689.496,588.375 687.193,587.461C686.798,587.304 686.404,587.136 686.035,586.928C685.581,586.672 685.557,585.789 686.019,585.565C686.691,585.238 687.392,584.957 688.103,584.725C690.669,583.887 693.178,582.926 695.602,581.724C701.8,578.652 706.488,574.035 709.759,567.974C711.297,565.125 712.643,562.183 713.514,559.047C713.6,558.736 713.725,558.435 713.825,558.128C713.996,557.601 714.213,557.057 714.839,557.019C715.663,556.969 715.879,557.64 716.059,558.269C716.832,560.972 717.876,563.566 719.097,566.098C723.136,574.477 729.52,580.257 738.245,583.456C739.965,584.087 741.706,584.659 743.424,585.295C743.825,585.44 744.162,585.743 744.195,586.24Z" style="fill-rule:nonzero;"/>
        </g>
        <g transform="matrix(1.245546,0,0,1.245546,-123.272623,-122.273008)">
            <path d="M315.769,586.251C315.806,586.669 315.53,587.012 315.121,587.177C313.921,587.661 312.714,588.131 311.487,588.539C309.33,589.256 307.257,590.168 305.253,591.224C299.145,594.444 294.538,599.18 291.41,605.312C289.993,608.09 288.582,610.892 287.842,613.96C287.792,614.168 287.7,614.367 287.621,614.567C287.408,615.11 287.028,615.536 286.438,615.485C286.027,615.449 285.67,615.111 285.53,614.66C285.113,613.322 284.696,611.984 284.29,610.643C282.525,604.812 279.314,599.91 274.769,595.877C271.917,593.347 268.67,591.428 265.175,589.941C263.094,589.056 260.964,588.288 258.855,587.47C258.556,587.354 258.203,587.313 257.961,587.127C257.723,586.944 257.48,586.633 257.444,586.353C257.389,585.921 257.595,585.496 258.044,585.317C258.643,585.079 259.264,584.897 259.87,584.676C261.591,584.048 263.336,583.475 265.025,582.768C272.598,579.598 278.207,574.296 281.945,567.006C283.176,564.604 284.236,562.127 285.023,559.54C285.211,558.922 285.383,558.293 285.64,557.702C285.812,557.306 286.164,556.967 286.646,557.077C286.922,557.14 287.273,557.348 287.382,557.586C287.693,558.266 287.908,558.991 288.142,559.705C289.525,563.934 291.373,567.938 293.969,571.567C297.919,577.089 303.168,580.912 309.484,583.306C311.298,583.994 313.146,584.591 314.965,585.264C315.355,585.41 315.754,585.645 315.769,586.251Z" style="fill-rule:nonzero;"/>
        </g>
        <g transform="matrix(1.245546,0,0,1.245546,-123.272623,-122.273008)">
            <path d="M621.734,445.104C621.55,445.028 621.265,445.001 621.201,444.868C620.925,444.291 620.664,443.697 620.487,443.084C618.422,435.902 613.735,431.2 606.828,428.582C605.821,428.2 604.818,427.807 603.818,427.405C603.51,427.281 603.296,427.049 603.307,426.69C603.319,426.3 603.625,426.138 603.924,426.026C605.136,425.574 606.368,425.172 607.572,424.699C613.202,422.487 617.085,418.493 619.446,412.97C620.038,411.585 620.564,410.173 621.152,408.786C621.218,408.629 621.481,408.472 621.656,408.467C621.836,408.463 622.122,408.603 622.186,408.754C622.522,409.543 622.801,410.357 623.101,411.161C624.803,415.714 627.352,419.639 631.445,422.421C633.153,423.582 635.008,424.445 636.94,425.152C637.751,425.449 638.582,425.693 639.374,426.033C639.625,426.14 639.876,426.45 639.949,426.716C640.037,427.037 639.772,427.303 639.456,427.426C638.251,427.897 637.035,428.34 635.836,428.825C631.167,430.713 627.489,433.761 625.12,438.242C624.165,440.048 623.414,441.962 622.577,443.83C622.446,444.121 622.388,444.45 622.228,444.722C622.13,444.889 621.903,444.979 621.734,445.104Z" style="fill-rule:nonzero;"/>
        </g>
        <g transform="matrix(1.245546,0,0,1.245546,-123.272623,-122.273008)">
            <path d="M424.284,604.508C424.094,604.442 423.795,604.428 423.734,604.3C423.413,603.627 423.091,602.943 422.881,602.23C420.917,595.585 416.686,591.012 410.303,588.392C409.008,587.861 407.697,587.367 406.411,586.815C406.148,586.702 405.825,586.434 405.772,586.187C405.659,585.656 406.141,585.489 406.542,585.34C407.047,585.153 407.557,584.978 408.071,584.818C415.282,582.573 419.977,577.747 422.649,570.769C423.034,569.763 422.823,568.329 424.276,567.897C425.254,568.577 425.19,569.754 425.605,570.701C426.777,573.371 428.024,575.984 429.938,578.237C432.532,581.291 435.856,583.196 439.541,584.577C440.444,584.915 441.35,585.249 442.238,585.625C442.635,585.793 442.602,586.494 442.189,586.672C441.3,587.055 440.405,587.433 439.49,587.747C433.08,589.95 428.698,594.272 426.139,600.499C425.648,601.693 425.216,602.911 424.73,604.107C424.662,604.273 424.437,604.375 424.284,604.508Z" style="fill-rule:nonzero;"/>
        </g>
        <g transform="matrix(1.245546,0,0,1.245546,-123.272623,-122.273008)">
            <path d="M398.205,426.817C398.084,426.987 398,427.226 397.836,427.313C397.362,427.563 396.872,427.802 396.361,427.958C388.223,430.432 383.359,436.089 380.761,443.96C380.661,444.263 380.568,444.582 380.397,444.844C380.298,444.995 380.045,445.13 379.869,445.122C379.695,445.114 379.442,444.952 379.377,444.795C379.09,444.103 378.829,443.396 378.612,442.679C376.677,436.277 372.563,431.837 366.472,429.183C364.99,428.537 363.478,427.961 361.99,427.329C361.704,427.208 361.417,426.981 361.575,426.595C361.65,426.412 361.795,426.193 361.963,426.126C362.663,425.845 363.38,425.603 364.098,425.371C371.043,423.12 375.669,418.476 378.226,411.694C378.568,410.788 378.898,409.877 379.246,408.973C379.37,408.651 379.622,408.475 379.978,408.491C380.366,408.509 380.526,408.808 380.644,409.105C381.282,410.707 381.826,412.35 382.546,413.914C385.073,419.405 389.315,423.027 394.948,425.091C395.956,425.46 396.958,425.847 397.945,426.268C398.082,426.325 398.119,426.627 398.205,426.817Z" style="fill-rule:nonzero;"/>
        </g>
        <g transform="matrix(1.245546,0,0,1.245546,-123.272623,-122.273008)">
            <path d="M595.585,586.005C595.517,586.192 595.501,586.483 595.371,586.547C594.701,586.882 594.021,587.215 593.311,587.446C586.289,589.731 581.496,594.328 578.907,601.24C578.53,602.247 578.115,603.24 577.68,604.223C577.617,604.366 577.337,604.489 577.161,604.484C576.986,604.48 576.716,604.342 576.659,604.196C576.347,603.395 576.067,602.58 575.813,601.759C573.908,595.62 569.933,591.326 564.125,588.693C562.656,588.027 561.121,587.504 559.627,586.891C559.257,586.739 558.751,586.626 558.86,586.044C558.952,585.549 559.389,585.43 559.795,585.282C561.11,584.803 562.44,584.36 563.729,583.818C568.274,581.907 571.666,578.733 573.991,574.388C575.012,572.479 575.797,570.479 576.513,568.445C576.618,568.148 576.792,567.882 577.194,567.892C577.582,567.902 577.764,568.151 577.877,568.45C578.144,569.155 578.349,569.884 578.636,570.58C579.666,573.076 580.815,575.506 582.509,577.642C585.064,580.864 588.378,582.99 592.193,584.401C593.203,584.774 594.221,585.127 595.221,585.525C595.378,585.589 595.464,585.84 595.585,586.005Z" style="fill-rule:nonzero;"/>
        </g>
        <g transform="matrix(13.985714,0,0,13.985714,-213.771429,-115.371429)">
            <circle cx="51" cy="44" r="35" style="fill-opacity:0;"/>
            <path d="M51,9C70.317,9 86,24.683 86,44C86,63.317 70.317,79 51,79C31.683,79 16,63.317 16,44C16,24.683 31.683,9 51,9ZM51,12.218C33.459,12.218 19.218,26.459 19.218,44C19.218,61.541 33.459,75.782 51,75.782C68.541,75.782 82.782,61.541 82.782,44C82.782,26.459 68.541,12.218 51,12.218Z" style="fill:white;"/>
        </g>
    </g>
</svg>
