<svg xmlns="http://www.w3.org/2000/svg" xml:space="preserve" style="fill-rule:evenodd;clip-rule:evenodd;stroke-linejoin:round;stroke-miterlimit:2" viewBox="0 0 100 100"><path d="M49.75 2.332c0 .069-.051.125-.112.125-.062 0-.47.225-.906.501a17.4 17.4 0 0 1-.981.587c-.103.047-.497.3-.875.562-.378.262-.73.476-.782.476-.052 0-.375.197-.718.438-.342.241-.649.438-.682.438-.033 0-.638.366-1.345.813a80.453 80.453 0 0 0-2.11 1.356c-.247.164-.5.32-.562.346-.183.078-1.982 1.159-2.05 1.232-.132.142-1.397.879-1.508.879-.064 0-.117.046-.117.102 0 .056-.183.197-.406.314-.224.117-.575.323-.781.459-.206.136-.558.342-.781.459-.224.117-.406.258-.406.314 0 .056-.07.103-.156.104-.143.002-1.072.567-1.432.87-.083.07-.178.127-.212.127-.056 0-1.912 1.139-2.949 1.81-.241.156-1 .627-1.688 1.046-.688.42-1.306.809-1.375.865-.069.056-.462.293-.875.526-.413.233-.778.462-.812.508-.034.047-.231.178-.438.293-.206.115-.544.319-.75.454-.206.134-.558.34-.781.457-.224.117-.406.258-.406.314 0 .056-.052.102-.117.102-.149 0-1.432.782-1.487.906a.172.172 0 0 1-.144.094c-.056 0-.459.225-.896.501a16.22 16.22 0 0 1-.981.586 8.097 8.097 0 0 0-.75.475c-.309.214-.9.58-1.312.812-.413.232-.778.46-.812.507-.034.047-.231.178-.438.293a14.51 14.51 0 0 0-.703.424c-.18.118-.686.426-1.125.685a15.13 15.13 0 0 0-1.016.639c-.207.16-.219 1.309-.219 20.994 0 16.505.032 20.853.156 20.959.228.196 2.082 1.376 2.161 1.376.037 0 .136.057.219.127.227.191.98.675 1.666 1.071.335.194.638.384.672.421.127.14 1.396.881 1.508.881.064 0 .117.047.117.105 0 .058.127.17.281.249.403.207.931.526 1.719 1.038.378.246 1.025.659 1.438.918.413.259 1.075.689 1.473.956.398.266.777.484.844.484.075 0 .121 1.411.121 3.74 0 2.057.034 3.828.075 3.936.041.108.393.376.781.596.388.221.725.446.748.502a.18.18 0 0 0 .155.101c.062 0 .508.253.991.562.483.309.907.562.944.562.037 0 .134.057.218.127.36.304 1.289.868 1.432.87.086.001.156.048.156.104 0 .056.183.197.406.314.223.117.575.322.781.457.206.135.572.361.812.502.241.142.937.565 1.548.941s1.133.684 1.162.684c.028 0 .119.057.202.127.301.253 1.102.748 1.21.748.061 0 .188.077.282.171.094.094.337.265.54.379.203.114.538.318.744.452.206.135.558.34.781.457.223.117.406.258.406.314 0 .056.05.102.112.102.109 0 .895.461 2.63 1.543 1.254.781 1.278.796 1.883 1.156.309.184.872.537 1.25.785s.84.536 1.026.64c.694.388 1.788 1.05 1.849 1.119.115.131 1.39.883 1.498.883.059 0 .129.069.158.154.036.109.221.064.635-.156.321-.17.584-.352.584-.404 0-.052.05-.094.112-.094.123 0 1.366-.733 2.638-1.555.447-.289.897-.565 1-.613.103-.048.581-.337 1.062-.642a92.363 92.363 0 0 1 1.668-1.028c.436-.26.943-.571 1.125-.691.182-.119.514-.313.738-.429.224-.117.406-.258.406-.314 0-.056.053-.102.117-.102.107 0 1.364-.729 1.508-.875.034-.035.231-.147.438-.25.206-.103.403-.222.438-.264.034-.042.231-.17.438-.285.206-.115.544-.318.75-.451.206-.134.572-.358.812-.5.241-.141.606-.366.812-.5.206-.133.544-.337.75-.451.206-.115.403-.243.438-.285.034-.042.231-.17.438-.285 1.25-.696 2.005-1.159 2.042-1.249.023-.057.088-.104.145-.104.057 0 .871-.478 1.809-1.062.938-.584 1.731-1.062 1.762-1.062.031 0 .337-.197.679-.438s.655-.438.695-.438c.04 0 .322-.171.626-.381l.554-.381v-3.878c0-4.122-.017-4.007.625-4.335.344-.176.333-.169 1.938-1.15a216 216 0 0 1 1.335-.812l2.332-1.401c.252-.152.627-.371.834-.486.206-.115.403-.245.438-.289.034-.043.203-.151.375-.239s.537-.295.812-.461c.275-.166.669-.396.875-.511.206-.115.403-.244.438-.286.034-.042.215-.161.4-.264.186-.103.65-.371 1.031-.595l.693-.407V46.284c0-11.578-.034-21.14-.076-21.249-.042-.109-.125-.198-.185-.198s-.434-.211-.83-.469a19.74 19.74 0 0 0-.846-.531c-.266-.133-2.003-1.183-2.062-1.246-.132-.142-1.397-.879-1.508-.879-.064 0-.117-.043-.117-.095 0-.052-.183-.175-.406-.274-.224-.099-.463-.228-.531-.286-.182-.154-1.427-.946-1.938-1.232a17.415 17.415 0 0 1-.812-.488 14.897 14.897 0 0 0-.75-.451c-.206-.115-.403-.244-.438-.288-.034-.043-.203-.148-.375-.232-.172-.084-.67-.378-1.106-.654-.437-.276-.84-.501-.896-.501a.173.173 0 0 1-.144-.101c-.023-.056-.351-.284-.729-.506a165.71 165.71 0 0 1-1.798-1.086c-.611-.374-1.133-.681-1.162-.681-.028 0-.119-.057-.202-.127-.281-.237-1.275-.868-1.371-.87-.052-.001-.362-.19-.688-.419-.326-.229-.649-.44-.718-.469-.212-.088-1.996-1.164-2.062-1.244-.034-.041-.4-.264-.812-.496-.412-.232-.778-.453-.812-.492-.034-.039-.231-.155-.438-.258a4.599 4.599 0 0 1-.5-.283c-.445-.342-1.275-.837-1.406-.839-.086-.001-.156-.048-.156-.104 0-.056-.183-.197-.406-.314a11.087 11.087 0 0 1-.781-.457 17.062 17.062 0 0 0-.812-.49c-.521-.292-1.758-1.08-1.943-1.238a1.211 1.211 0 0 0-.25-.162c-.134-.056-1.562-.911-3.229-1.933-.611-.374-1.154-.68-1.208-.68a.168.168 0 0 1-.14-.094c-.053-.12-1.335-.906-1.477-.906a.174.174 0 0 1-.148-.098c-.053-.123-.953-.652-1.111-.652-.065 0-.118.056-.118.125M8.799 10.446c-.8.421-1.223.678-1.389.844-.094.094-.221.171-.282.171-.096 0-.511.253-1.278.78-.194.133-.219.394-.219 2.309v2.158l.531.337c1.177.747 2.491 1.541 2.549 1.541.034 0 .144.082.244.182.165.164.511.14.675-.048.034-.039.197-.147.361-.24.164-.092.502-.285.75-.429.248-.143.62-.352.827-.463.206-.111.615-.355.909-.543l.534-.341-.034-2.214-.034-2.214-.457-.251c-1.147-.631-2.185-1.236-2.356-1.376-.415-.337-.929-.416-1.333-.203m81.395-.024c-.206.11-.403.239-.438.286-.034.047-.245.165-.469.262-.224.097-.406.219-.406.271 0 .052-.054.095-.121.095-.108 0-.962.502-1.536.902-.194.136-.219.397-.219 2.311v2.158l.531.345c.292.19.588.373.656.408.311.155 2.007 1.187 2.062 1.255.147.178.505.223.658.084.091-.083.36-.257.597-.386s.629-.349.869-.488c.241-.14.55-.317.688-.393.138-.077.489-.294.781-.482l.531-.342v-2.132c0-1.541-.043-2.175-.156-2.286-.086-.084-.691-.456-1.344-.827-.653-.37-1.216-.713-1.25-.761-.05-.07-.986-.505-1.046-.486-.009.003-.185.095-.391.206m-56.21 39.321c-.24.227-1.474.969-1.611.969-.064 0-.117.049-.117.11 0 .06-.183.185-.406.277-.223.092-.462.212-.531.268-.134.109-.979.648-2 1.276l-.875.54c-.137.086-.433.25-.656.365-.223.116-.406.256-.406.312 0 .056-.059.102-.131.102-.072 0-.47.225-.884.5-.414.275-.805.5-.869.5-.069 0-.116 1.669-.116 4.129 0 3.814.017 4.136.219 4.22.12.05.71.414 1.311.808.601.395 1.124.718 1.161.718.038 0 .137.058.22.129.207.176 2.342 1.548 2.72 1.747.168.089.334.201.369.25.034.049.231.183.438.298.206.115.544.318.75.451.206.133.541.336.744.45.203.114.446.285.54.379.252.252.552.21 1.028-.141.233-.172.492-.312.576-.312.084 0 .172-.047.194-.104.023-.057.427-.325.897-.594a36.002 36.002 0 0 0 1.188-.705c.182-.118.529-.331.769-.472.241-.141.606-.368.812-.504.206-.136.516-.317.688-.403.172-.086.622-.354 1-.595 1.031-.659 1.16-.737 1.498-.906.782-.391.752-.204.752-4.699 0-3.819-.016-4.12-.229-4.312-.126-.114-.258-.207-.294-.207-.036 0-.566-.308-1.178-.684-.612-.376-1.422-.865-1.8-1.086-.378-.221-.706-.448-.729-.504a.171.171 0 0 0-.144-.101c-.056 0-.459-.222-.896-.493-1.652-1.027-2.548-1.571-2.669-1.619a2.769 2.769 0 0 1-.423-.281c-.347-.269-.678-.296-.912-.075m31.653-.065c-.1.039-.241.12-.312.179-.297.245-1.087.729-1.19.729-.061 0-.185.074-.276.164-.091.09-.55.386-1.021.656-.471.27-.986.576-1.144.679a76.016 76.016 0 0 1-2.289 1.376c-.185.104-.606.371-.936.594-.33.223-.646.406-.702.406-.056 0-.25.117-.431.259L57 54.98v8.216l.757.477c.416.262 1.343.856 2.059 1.32.716.464 1.334.844 1.373.844.039 0 .139.058.222.129.198.169 2.329 1.541 2.712 1.746.164.088.358.209.431.269.369.305 1.102.731 1.258.731.148 0 .721-.327 1.256-.717a7.75 7.75 0 0 1 .5-.304c1.434-.812 1.999-1.159 2.035-1.249a.174.174 0 0 1 .147-.104c.058 0 .574-.289 1.146-.642a68.715 68.715 0 0 1 1.475-.889c.239-.136.872-.528 1.406-.87l.971-.623v-8.292l-.656-.433c-.72-.475-1.255-.799-1.688-1.021-.155-.079-.281-.192-.281-.249 0-.058-.052-.105-.117-.105-.12 0-1.397-.752-1.508-.888-.034-.042-.231-.171-.438-.285a16.552 16.552 0 0 1-.75-.451 16.552 16.552 0 0 0-.75-.451c-.206-.115-.403-.244-.438-.288-.034-.043-.203-.149-.375-.234a16.68 16.68 0 0 1-1-.586c-.705-.442-.805-.473-1.119-.349m-15.912 20.24c-.12.034-.219.107-.219.162 0 .055-.183.175-.406.265-.224.09-.434.199-.469.242-.034.043-.4.267-.812.499-.413.231-.778.453-.812.492-.034.039-.231.155-.438.258a4.006 4.006 0 0 0-.5.288c-.253.204-2.229 1.337-2.332 1.337-.058 0-.106.056-.106.125s-.062.125-.137.125c-.075 0-.3.116-.5.258l-.363.258v4.304c0 2.367.02 4.304.043 4.304.084 0 .78-.396 1.644-.935.481-.3 1.241-.757 1.688-1.014.447-.257.841-.5.875-.541.034-.04.231-.158.438-.26.206-.103.403-.219.438-.258.034-.039.4-.261.812-.492.413-.231.778-.453.812-.492.363-.412 1.166-.449 1.545-.07.103.103.221.187.262.187.041 0 .678.394 1.415.875l1.528.998.662.437c.261.173.495.315.521.315.026 0 .467.281.981.625s.969.625 1.011.625c.042 0 .076-1.937.076-4.304v-4.304l-.363-.258c-.2-.142-.42-.258-.49-.258s-.145-.046-.168-.101c-.023-.056-.379-.291-.792-.523-.413-.232-.778-.46-.812-.506-.034-.047-.253-.191-.485-.321-.232-.13-.514-.293-.625-.361-.111-.069-.568-.348-1.015-.62-1.011-.617-1.641-1.025-1.841-1.193-.189-.159-.77-.25-1.065-.167M8.623 72.904c-.233.172-.47.312-.526.312-.056 0-.382.197-.724.438-.342.241-.652.438-.689.438-.037 0-.29.148-.564.329l-.497.329v4.347l.594.368c.327.202.65.412.719.466.069.054.294.182.5.286.206.103.431.231.5.283.463.354 1.104.717 1.264.717.171 0 1.267-.573 1.423-.744.034-.038.342-.209.684-.381.342-.172.808-.439 1.037-.594.229-.155.469-.281.535-.281.072 0 .12-.9.12-2.241v-2.241l-.701-.416c-.386-.228-.906-.539-1.156-.691-.25-.151-.596-.346-.768-.433a4.975 4.975 0 0 1-.611-.381c-.4-.3-.637-.282-1.139.089m81.5-.062c-.172.135-.357.246-.412.247-.055.002-.439.228-.853.503s-.778.5-.809.5c-.031 0-.28.148-.554.329l-.497.329v2.204c0 2.055.016 2.212.242 2.327.511.26 1.948 1.106 2.008 1.181.135.171 1.243.755 1.434.755.111 0 .354-.101.54-.224.388-.256.434-.283 1.995-1.177l1.156-.662v-2.267c0-2.048-.021-2.274-.219-2.338-.12-.039-.425-.201-.678-.358-1.151-.719-2.741-1.599-2.884-1.596-.087.001-.298.113-.47.247" style="fill:#fbfbfb"/></svg>