<svg xmlns="http://www.w3.org/2000/svg" xml:space="preserve" style="fill-rule:evenodd;clip-rule:evenodd;stroke-linejoin:round;stroke-miterlimit:2" viewBox="0 0 100 100"><path d="M253.5 28.598c-45.208 4.5-85.959 18.62-122.491 42.44-12.413 8.095-13.898 9.473-12.119 11.252.941.941 2.129.683 5.408-1.173 34.3-19.419 63.141-30.268 93.435-35.147 16.735-2.695 18.735-2.401 6.267.92-35.867 9.555-69.594 26.503-99 49.749-12.634 9.987-36.331 34.284-46.191 47.361-26.824 35.573-43.95 75.001-51.301 118.103-5.733 33.617-4.175 75.021 4.09 108.719 22.562 91.986 91.914 165.331 182.269 192.763 12.024 3.65 36.02 8.861 36.874 8.007.924-.924-.669-3.629-2.468-4.193-.975-.306-7.623-2.827-14.773-5.602-50.808-19.723-93.907-54.117-122.743-97.953-13.317-20.245-13.368-20.509-1.849-9.52 53.87 51.394 129.305 85.456 207.592 93.737 14.563 1.54 48.999 1.55 64 .019 38.938-3.975 81.089-18.208 108.488-36.632 63.976-43.022 87.514-112.658 62.832-185.887-3.902-11.577-4.018-12.282-2.892-17.561 18.48-86.623-.716-164.878-52.457-213.856C467.741 66.949 432.59 52.216 390 49.52c-8.685-.55-12.333-1.337-21.101-4.553-31.585-11.587-54.909-15.92-88.399-16.422-12.65-.19-24.8-.166-27 .053m-4 16.003c6.362 1.42 10.625 3.608 9.404 4.828-.262.262-5.635 2.042-11.94 3.955-76.727 23.278-137.195 84.047-158.845 159.636-13.504 47.151-11.232 98.498 6.395 144.48 15.705 40.969 42.352 75.868 79.417 104.013 6.885 5.227 6.92 4.975.487-3.513-14.217-18.758-34.277-63-28.564-63 .469 0 4.451 4.174 8.849 9.275 25.99 30.15 55.718 46.869 98.297 55.281 11.333 2.239 46.102 3.103 60.113 1.494 44.185-5.074 87.938-22.799 125.387-50.796 12.031-8.995 33.656-28.876 39.674-36.473l3.211-4.055-7.317 5.654c-4.025 3.109-11.257 8.09-16.071 11.068-17.933 11.093-50.161 25.788-52.164 23.785-1.658-1.658.209-3.7 8.447-9.233 18.391-12.352 39.988-32.173 52.968-48.61 18.267-23.134 34.776-56.112 41.769-83.435 5.057-19.764 6.171-27.948 6.591-48.455.4-19.469.365-19.907-1.311-16.5-.947 1.925-4.743 9.912-8.437 17.75-3.694 7.837-7.105 14.25-7.58 14.25-.476 0-2.094-3.937-3.596-8.75-9.072-29.068-23.686-57.33-43.048-83.25-9.302-12.452-36.419-39.544-49.465-49.419-42.238-31.971-91.272-49.387-143.695-51.039l-15.976-.503 7 1.562m158.516 19.193c20.26 11.853 35.684 23.848 53.582 41.666 18.51 18.428 30.719 34.214 44.055 56.957 2.929 4.996 5.33 8.526 5.336 7.845.023-2.586-6.4-21.108-10.089-29.097-14.088-30.507-36.444-53.986-65.725-69.026C426.086 67.47 406.218 60 402.889 60c-.746 0 1.561 1.707 5.127 3.794m126.612 288.619c-2.258 8.792-18.934 40.107-30.734 57.715-14.579 21.757-38.397 47.635-58.401 63.457-18.542 14.665-45.55 30.539-62.993 37.024-7.377 2.743-3.155 2.923 9.313.397 61.258-12.41 107.367-43.019 129.559-86.006 6.692-12.963 10.005-22.13 12.599-34.857 2.361-11.584 3.581-30.975 2.306-36.643l-.9-4-.749 2.913" style="fill:#fcfcfc" transform="matrix(.17735 0 0 .17516 -1.922 -2.556)"/></svg>