<svg xmlns="http://www.w3.org/2000/svg" xml:space="preserve" style="fill-rule:evenodd;clip-rule:evenodd;stroke-linejoin:round;stroke-miterlimit:2" viewBox="0 0 100 100"><path d="M868.915 635.327c-.996 3.648-2.512 7.106-3.904 10.607a382.798 382.798 0 0 1-23.967 49.533 394.805 394.805 0 0 1-34.923 51.023c-6.788 8.415-13.958 16.491-21.347 24.376-.806.861-1.726 1.615-2.593 2.419-2.281-.306-3.388-2.221-4.76-3.656a332.025 332.025 0 0 0-43.773-38.41c-15.277-11.198-31.351-21.071-48.162-29.818-27.456-14.287-56.246-24.958-86.242-32.417-18.049-4.488-36.348-7.623-54.855-9.544-10.089-1.047-20.188-1.694-30.335-2.001-5.925-.179-11.858-.665-17.786-.48-27.989.877-55.759 3.612-83.157 9.7-26.032 5.784-51.25 13.974-75.633 24.759-23.398 10.349-45.465 23.013-66.23 37.956-17.407 12.526-33.478 26.584-48.385 41.991-1.172 1.211-2.163 2.761-4.071 3.019-4.251-3.843-7.967-8.196-11.79-12.442-13.814-15.344-26.289-31.722-37.491-49.06-11.489-17.782-21.542-36.348-29.94-55.791-2.392-5.538-4.601-11.155-6.856-16.75-.398-.986-.912-1.958-.923-3.07 1.704-25.245 9.66-48.566 21.852-70.551 10.686-19.27 24.107-36.562 38.597-53.083 11.106-12.663 22.716-24.843 34.374-36.994 12.626-13.16 25.386-26.2 37.732-39.626 19.887-21.628 39.021-43.888 56.12-67.831 11.126-15.579 21.452-31.668 29.999-48.803 13.896-27.856 23.372-57.108 26.953-88.155 1.35-11.702 2.333-23.431 1.78-35.193-.987-20.984-3.72-41.703-10.686-61.678-.631-1.808-1.644-3.226-2.909-4.555 1.172-.811 2.569-1.068 3.875-1.533 20.165-7.177 40.816-12.538 61.88-16.279 8.386-1.489 16.827-2.655 25.305-3.561 9.338-.998 18.693-1.621 28.074-2.058 8.312-.387 16.621-.488 24.923-.231 8.622.267 17.24.742 25.842 1.541 8.167.759 16.309 1.699 24.407 2.944a386.729 386.729 0 0 1 43.011 9.161 403.727 403.727 0 0 1 30.225 9.549c.397.142.761.375 1.14.565-3.312 9.373-6.064 18.896-7.985 28.663-3.474 17.667-4.985 35.521-4.122 53.471 1.641 34.145 9.873 66.713 24.102 97.833 13.86 30.312 32.88 57.25 53.513 83.162 10.628 13.348 21.847 26.191 33.425 38.734 11.204 12.138 22.648 24.04 34.052 35.987 18.853 19.749 38.027 39.222 54.979 60.702 11.472 14.536 21.93 29.735 30.135 46.376 8.623 17.489 14.113 35.948 16.596 55.297.184 1.414-.157 2.8-.066 4.202Z" style="fill:#05a;fill-rule:nonzero" transform="matrix(.12455 0 0 .12455 -12.327 -12.227)"/><path d="M665.367 856.419c-4.024 2.336-8.367 3.99-12.629 5.797a383.425 383.425 0 0 1-54.252 18.353 392.131 392.131 0 0 1-41.897 8.383c-8.556 1.23-17.144 2.128-25.744 2.926-3.655.339-7.325.572-10.993.711-13.286.503-26.58.602-39.86-.03a353.494 353.494 0 0 1-26.141-2.234c-7.398-.906-14.772-1.938-22.113-3.208-15.55-2.69-30.864-6.372-45.969-10.941-23.217-7.023-45.551-16.192-67.073-27.37-27.161-14.106-52.248-31.259-75.446-51.198-.73-.627-1.364-1.365-2.043-2.051.138-2.587 2.255-3.508 3.993-4.751 5.92-3.965 11.445-8.47 17.342-12.476 22.127-15.034 45.916-26.705 71.254-35.169 20.658-6.901 41.867-11.278 63.566-13.484 14.013-1.425 28.054-1.662 42.048-1.049 23.37 1.023 46.339 4.959 68.79 11.711 16.49 4.959 32.433 11.265 47.819 18.988 21.147 10.615 40.655 23.684 58.662 39.032 18.763 15.992 35.106 34.159 49.247 54.329.778 1.108 1.979 2.097 1.439 3.731Z" style="fill:#a00;fill-rule:nonzero" transform="matrix(.12455 0 0 .12455 -12.327 -12.227)"/><path d="M365.604 130.804c1.545.053 2.439.645 3.011 2.29a192.782 192.782 0 0 1 7.072 26.114c.89 4.525 1.674 9.072 2.299 13.622.376 2.737.672 5.538.912 8.316.307 3.542.164 7.126.651 10.609.994 7.111.247 14.22.528 21.32-.9 3.276-.298 6.67-.734 9.957-.508 3.831-.62 7.707-1.277 11.5-.603 3.482-1.003 6.993-1.673 10.47-.689 3.577-1.428 7.15-2.05 10.739-.718 4.141-1.853 8.175-2.916 12.216-1.504 5.716-3.277 11.373-5.194 16.966-1.883 5.494-4.059 10.889-6.162 16.306-1.99 5.128-4.518 10.018-6.748 15.037-2.107 4.742-4.681 9.224-7.073 13.799-2.439 4.664-5.15 9.197-7.941 13.681-3.528 5.667-7.075 11.319-10.831 16.833-3.268 4.797-6.682 9.496-10.087 14.198-2.773 3.829-5.559 7.647-8.575 11.299-2.802 3.393-5.363 6.983-8.084 10.444-1.394 1.774-2.924 3.441-4.36 5.183-1.571 1.905-3.134 3.818-4.646 5.771-1.319 1.703-2.877 3.193-4.251 4.852-1.709 2.061-3.425 4.145-5.251 6.123-3.062 3.318-6.177 6.594-8.952 10.166-.132.17-.274.338-.434.48-3.958 3.526-7.07 7.842-10.836 11.555-2.603 2.567-4.941 5.401-7.472 8.045-2.464 2.574-5.242 4.879-7.493 7.621-4.264 5.192-9.425 9.497-13.873 14.481-5.321 5.963-11.211 11.374-16.554 17.291-3.111 3.446-6.629 6.521-9.5 10.134-2.69 3.385-6.193 6.015-8.554 9.665-.23.356-.599.62-.891.938-2.475 2.697-5.025 5.33-7.399 8.112-2.718 3.185-5.277 6.506-7.909 9.764-2.903 3.594-5.986 7.059-8.674 10.806-3.697 5.153-7.467 10.26-10.881 15.619-2.604 4.088-5.07 8.252-7.531 12.425-3.076 5.216-5.659 10.678-8.276 16.116-2.473 5.139-4.418 10.512-6.211 15.936-1.486 4.496-3.005 8.982-4.057 13.6-1.071 4.702-2.186 9.412-2.876 14.177-.381 2.632-1.052 5.275-.81 8.006.124 1.403-.342 2.747-1.25 3.884-1.823-3.804-3.011-7.846-4.351-11.823a389.23 389.23 0 0 1-14.282-55.728c-1.483-8.279-2.655-16.609-3.598-24.975-1.246-11.052-1.99-22.133-2.426-33.239-.059-1.502.052-3.011.085-4.517 1.932.563 1.234 2.209 1.376 3.466.143 1.262-.057 2.536-.365 3.759 1.11-3.946 3.201-7.412 5.163-10.912 4.621-8.243 10.617-15.456 16.986-22.389 19.952-21.72 38.648-44.461 55.702-68.542 13.792-19.475 27.356-39.107 39.5-59.659 15.248-25.805 27.158-53.009 33.264-82.517 2.344-11.327 3.807-22.797 3.646-34.359-.196-14.08-1.827-27.99-7.249-41.189-.207-.504-.322-1.028-.414-1.561 3.198-3.063 6.837-5.578 10.369-8.214 27.89-20.823 58.033-37.626 90.396-50.433 3.298-1.306 6.557-2.746 10.011-3.634ZM868.915 635.327c-.182-.26-.533-.528-.522-.78.106-2.39-.535-4.693-.814-7.033-.354-2.976-.962-5.923-1.516-8.873-1.13-6.021-2.668-11.951-4.461-17.797-1.355-4.418-3.08-8.731-4.811-13.022-2.016-4.996-4.171-9.939-6.674-14.718-4.253-8.117-8.93-15.981-14.141-23.521-2.874-4.158-5.705-8.351-8.726-12.402-2.76-3.702-5.734-7.247-8.642-10.837-2.84-3.506-5.673-7.02-8.591-10.46-2.088-2.461-4.46-4.691-6.444-7.229-3.058-3.914-6.917-7.084-9.92-11.05-1.357-1.792-3.189-3.22-4.748-4.867-2.962-3.13-5.84-6.338-8.831-9.439-2.999-3.11-6.329-5.931-9.093-9.232-4.591-5.481-10.089-10.065-14.781-15.41-4.207-4.793-8.927-9.079-13.147-13.83-2.509-2.825-5.28-5.403-7.679-8.297-2.349-2.834-5.063-5.304-7.45-8.073-3.232-3.749-6.521-7.442-9.829-11.124-3.229-3.594-6.193-7.424-9.298-11.131-2.485-2.967-5.049-5.868-7.498-8.863a416.035 416.035 0 0 1-7.802-9.859c-3.207-4.174-6.352-8.397-9.511-12.608-1.42-1.892-2.872-3.764-4.204-5.717-4.913-7.202-9.884-14.367-14.628-21.679-2.691-4.149-5.121-8.475-7.573-12.782-3.309-5.814-6.558-11.656-9.395-17.709-3.655-7.8-7.182-15.653-10.151-23.758-1.891-5.161-3.648-10.362-5.329-15.589-2.304-7.162-4.05-14.473-5.708-21.813-.828-3.665-1.404-7.373-2.226-11.036-.468-2.084-.443-4.285-.97-6.349-.644-2.52-.306-5.15-1.098-7.639-.221-.696-.128-1.498-.142-2.253-.026-1.4.028-2.786-.476-4.155-.25-.678-.148-1.492-.172-2.246-.077-2.469.238-4.96-.575-7.385-.197-.587-.072-1.286-.072-1.934-.004-6.374-.002-12.748-.003-19.122 0-1.187-.049-2.376.44-3.508.125-.288.192-.638.164-.949-.33-3.683.558-7.285.72-10.937.1-2.244.291-4.526.828-6.696.52-2.102.609-4.245.983-6.353.674-3.805 1.525-7.569 2.246-11.361.945-4.971 2.578-9.758 3.857-14.639.652-2.488 1.723-4.867 2.622-7.289.199-.535.683-.815 1.161-1.077 1.22.409 2.453.784 3.658 1.233 31.784 11.857 61.426 27.756 89.095 47.348 5.276 3.736 10.391 7.703 15.546 11.607 1.104.836 2.306 1.588 3.141 2.745a6.13 6.13 0 0 1-.376 2.538c-5.314 14.624-7.163 29.809-6.477 45.234.958 21.525 5.75 42.316 13.351 62.456 8.927 23.654 20.789 45.785 34.744 66.836 13.131 19.808 26.377 39.534 40.716 58.497 12.054 15.94 24.781 31.321 38.339 46.017 9.742 10.559 19.168 21.385 25.382 34.671.371-1.602-.731-3.531 1.429-4.393.348 3.778.034 7.551-.161 11.319-.251 4.852-.599 9.699-.954 14.545-.877 11.958-2.44 23.829-4.46 35.648-3.774 22.075-9.443 43.647-16.966 64.736-.253.71-.557 1.401-.837 2.102-.278.388-.173.938-.542 1.287l.002.004Z" style="fill:#00a;fill-rule:nonzero" transform="matrix(.12455 0 0 .12455 -12.327 -12.227)"/><path d="M665.367 856.419c-1.278-2.509-3.118-4.641-4.723-6.926a197.832 197.832 0 0 0-7.149-9.555c-2.613-3.28-5.536-6.321-8.042-9.677-2.399-3.212-5.626-5.659-7.882-8.977-.419-.616-1.028-1.105-1.562-1.64-3.434-3.44-6.724-7.04-10.349-10.265-3.456-3.075-6.683-6.401-10.333-9.272-3.295-2.592-6.346-5.493-9.607-8.13-2.926-2.365-5.924-4.654-9.011-6.804-5.565-3.875-11.167-7.703-16.853-11.396-4.785-3.109-9.662-6.082-14.749-8.691-4.22-2.165-8.378-4.451-12.618-6.574-7.228-3.619-14.669-6.771-22.208-9.677a374.656 374.656 0 0 0-15.192-5.458c-8.766-2.952-17.702-5.353-26.72-7.361-5.22-1.162-10.477-2.275-15.823-2.882-3.508-.398-6.952-1.441-10.462-1.704-2.789-.209-5.511-1.049-8.339-.819-.634.052-1.333.029-1.918-.187-1.473-.543-2.982-.395-4.486-.439-1.933-.056-3.875.135-5.776-.505-.688-.232-1.498-.13-2.252-.131-9.18-.007-18.36-.006-27.54-.004-1.186 0-2.372-.031-3.516.411a3.07 3.07 0 0 1-1.272.183c-3.787-.254-7.515.44-11.264.73-2.773.215-5.521.732-8.284 1.083-1.81.23-3.614.466-5.419.752-6.57 1.038-13.1 2.24-19.607 3.633-5.784 1.239-11.505 2.725-17.164 4.378-4.945 1.445-9.894 2.928-14.749 4.727-5.35 1.982-10.725 3.89-15.996 6.077-2.088.866-4.207 1.664-6.252 2.622-5.175 2.423-10.379 4.795-15.454 7.415-6.891 3.557-13.696 7.281-20.192 11.542-3.512 2.303-7.097 4.496-10.586 6.832-5.096 3.412-10.004 7.09-14.83 10.872-.603.473-1.145.993-1.977.96-.891-1.892.712-2.767 1.67-3.779 17.858-18.87 37.963-34.924 60.297-48.213 24.648-14.666 50.798-25.819 78.247-34.057 21.896-6.572 44.204-11.107 66.881-13.793 9.742-1.154 19.537-1.788 29.352-2.293 8.643-.445 17.273-.621 25.896-.439 21.28.449 42.432 2.418 63.413 6.121 18.12 3.198 35.948 7.607 53.409 13.352 22.946 7.55 44.936 17.3 65.839 29.49a291.128 291.128 0 0 1 41.513 29.312c9.153 7.748 17.723 16.142 25.581 25.229.752.87 1.798 1.646 1.473 3.055-.516.545-.988 1.141-1.554 1.628-20.518 17.639-42.506 33.178-66.157 46.349-7.638 4.253-15.43 8.198-23.31 11.976-.768.37-1.595.616-2.394.919Z" style="fill:#f50;fill-rule:nonzero" transform="matrix(.12455 0 0 .12455 -12.327 -12.227)"/><path d="M254.827 193.085c.717.343 1.172.87 1.425 1.654 1.023 3.171 2.28 6.279 3.105 9.499 1.064 4.152 2.076 8.355 2.58 12.6.378 3.182 1.149 6.366.826 9.63a7.868 7.868 0 0 0 .334 3.2c.225.702.263 1.484.269 2.232.028 3.133.013 6.266.013 9.399 0 .866-.025 1.722-.337 2.553-.149.397-.283.846-.253 1.258.259 3.573-.4 7.086-.736 10.612-.305 3.198-.85 6.378-1.398 9.546-1.116 6.455-2.625 12.828-4.398 19.131-1.602 5.695-3.2 11.394-5.399 16.905-1.515 3.798-2.868 7.66-4.338 11.477a130.743 130.743 0 0 1-2.362 5.663c-3.173 7.212-6.58 14.321-10.325 21.246a435.684 435.684 0 0 1-12.777 22.089c-7.43 12.001-15.402 23.636-23.252 35.353-4.189 6.252-8.81 12.212-13.069 18.419-4.991 7.276-10.451 14.202-15.752 21.241-2.901 3.852-5.735 7.796-9.083 11.316-1.326 1.394-2.411 3.02-3.571 4.567-1.422 1.897-3.192 3.479-4.616 5.396-1.725 2.323-4.051 4.209-5.712 6.57-2.253 3.202-5.57 5.429-7.63 8.764a1.099 1.099 0 0 1-.214.243c-3.013 2.643-5.4 5.866-8.081 8.813-5.577 6.132-10.843 12.513-15.077 19.697-2.512 4.263-4.555 8.756-6.809 13.132-.124-.017-.259.002-.294-.048-.055-.08-.057-.206-.058-.313-.022-1.836-.028-3.673-.066-5.509-.017-.843.191-1.751-.556-2.433-.319-6.152-.215-12.309-.079-18.461.25-11.342 1.158-22.637 2.437-33.911a386.022 386.022 0 0 1 6.956-41.164 387.33 387.33 0 0 1 20.114-63.493c13.01-31.385 29.787-60.602 50.363-87.639a394.723 394.723 0 0 1 55.294-59.005c4.069-3.535 8.078-7.154 12.526-10.229Z" style="fill:#005;fill-rule:nonzero" transform="matrix(.12455 0 0 .12455 -12.327 -12.227)"/><path d="M758.782 795.549c-1.885-2.207-3.678-4.502-5.677-6.601-3.276-3.44-6.69-6.749-10.039-10.12-4.18-4.207-8.634-8.102-13.172-11.919a284.123 284.123 0 0 0-29.878-21.99c-5.534-3.538-11.231-6.812-16.962-10.031-5.366-3.015-10.897-5.688-16.387-8.448-7.417-3.728-15.066-6.943-22.786-9.975-5.809-2.282-11.65-4.51-17.573-6.469-5.916-1.957-11.858-3.863-17.912-5.388-6.042-1.523-12.031-3.27-18.105-4.644-5.016-1.135-10.006-2.42-15.125-3.106-2.865-.384-5.682-1.107-8.534-1.606-2.111-.37-4.244-.615-6.365-.933-2.226-.335-4.467-.605-6.668-1.064-1.902-.396-3.912.106-5.739-.767-2.818.161-5.538-.766-8.344-.754-1.186.005-2.372.032-3.517-.407a3.37 3.37 0 0 0-1.27-.196c-5.286.148-10.506-1.077-15.806-.727-1.495.099-3.002.07-4.489-.405-.795-.254-1.709-.174-2.57-.175-7.883-.011-15.767-.011-23.65 0-.861.001-1.776-.086-2.571.168-1.487.475-2.985.376-4.489.437-3.436.139-6.898-.318-10.307.578-.913.24-1.935.06-2.906.082-1.612.036-3.243-.137-4.799.499-.288.118-.644.142-.959.112-3.042-.294-6.006.506-8.985.817-2.429.254-4.923.299-7.336.932-1.756.461-3.61.54-5.41.776-6.07.794-12.049 2.03-18.061 3.137-8.032 1.479-15.976 3.308-23.867 5.38-4.157 1.092-8.305 2.234-12.412 3.5-6.066 1.87-12.12 3.791-18.128 5.84-6.113 2.086-12.112 4.477-18.069 6.989-8.246 3.479-16.388 7.168-24.343 11.269-8.335 4.297-16.425 9.011-24.4 13.949-7.886 4.883-15.338 10.359-22.758 15.888-2.929 2.182-5.617 4.685-8.464 6.98-8.164 6.583-15.433 14.109-22.779 21.554-.813.824-1.903 1.495-1.962 2.853-1.503 1.163-2.79 2.541-4.004 3.993-3.525-2.474-6.492-5.591-9.641-8.487-4.418-4.063-8.768-8.207-12.776-12.686 3.802-3.837 7.569-7.709 11.409-11.508 10.071-9.963 20.767-19.205 32.006-27.835a361.422 361.422 0 0 1 39.291-26.273 370.041 370.041 0 0 1 30.783-15.906c13.555-6.225 27.396-11.698 41.552-16.366 15.072-4.97 30.409-8.952 45.97-12.098 6.66-1.346 13.353-2.48 20.051-3.582 4.04-.664 8.124-1.068 12.193-1.539 5.247-.607 10.501-1.164 15.751-1.741a7.77 7.77 0 0 1 .646-.051c6.044-.156 12.067-.701 18.112-.919 6.801-.246 13.598-.453 20.399-.333 6.044.107 12.088.324 18.124.655 5.276.29 10.552.692 15.806 1.252 6 .639 11.982 1.465 17.961 2.287 4.698.646 9.398 1.308 14.066 2.137 15.621 2.776 31.038 6.411 46.233 10.999a397.894 397.894 0 0 1 38.675 13.891c5.475 2.292 10.858 4.808 16.238 7.318 9.594 4.477 18.941 9.436 28.088 14.763a356.02 356.02 0 0 1 24.028 15.325 364.71 364.71 0 0 1 24.264 18.392c4.995 4.13 9.885 8.383 14.591 12.839 5.88 5.568 11.687 11.213 17.152 17.197-.403.5-.77 1.036-1.217 1.494-6.788 6.949-13.801 13.661-21.133 20.036-.317.276-.695.488-1.045.731Z" style="fill:#fa5;fill-rule:nonzero" transform="matrix(.12455 0 0 .12455 -12.327 -12.227)"/><path d="M892.836 505.688c-.429.394-.555.901-.557 1.459-.005 1.296-.008 2.593-.025 3.889-.005.408.119 1.012-.297 1.136-.715.213-.803-.489-.987-.974-1.344-3.552-3.431-6.708-5.367-9.937-2.77-4.62-5.983-8.94-9.366-13.124-1.825-2.257-3.835-4.366-5.774-6.53-3.302-3.686-6.786-7.211-9.862-11.098-.267-.337-.594-.627-.886-.945-2.475-2.698-5.022-5.335-7.402-8.115-2.654-3.1-5.059-6.415-7.751-9.48-2.275-2.59-4.379-5.308-6.536-7.988-1.955-2.428-3.93-4.841-5.837-7.307a636.255 636.255 0 0 1-7.591-10.021 1101.534 1101.534 0 0 1-8.756-11.977c-11.837-16.422-22.981-33.316-34.074-50.241-2.83-4.318-5.273-8.888-7.973-13.293-5.14-8.388-9.289-17.294-13.638-26.09-3.006-6.08-5.568-12.366-7.964-18.72a274.36 274.36 0 0 1-5.326-15.589c-2.033-6.566-3.942-13.167-5.073-19.97-.492-2.958-1.259-5.871-1.75-8.829-.386-2.325-.304-4.745-.849-7.022-.912-3.809-.07-7.755-1.145-11.531-.2-.704-.085-1.503-.086-2.259-.008-3.133-.016-6.266 0-9.399.008-1.612-.141-3.234.488-4.8.192-.477.125-1.065.142-1.604.293-9.424 2.439-18.497 5.266-27.429.446-1.408.924-2.858 1.864-4.067l.008.005c.196.261.46.431.748.57 3.992 2.78 7.585 6.054 11.244 9.235a392.453 392.453 0 0 1 49.865 52.124 394.662 394.662 0 0 1 38.767 58.882 389.795 389.795 0 0 1 25.581 58.676 388.82 388.82 0 0 1 13.912 52.514 409.733 409.733 0 0 1 4.949 33.29c.657 6.115 1.058 12.26 1.449 18.4.528 8.299.79 16.61.721 24.927-.007 1.079-.085 2.155-.132 3.232Z" style="fill:#005;fill-rule:nonzero" transform="matrix(.12455 0 0 .12455 -12.327 -12.227)"/><path d="M868.916 635.325c-.073-.536.053-.988.542-1.287.071.535-.087.974-.542 1.287Z" style="fill:#4a658e;fill-rule:nonzero" transform="matrix(.12455 0 0 .12455 -12.327 -12.227)"/><path d="M746.484 194.409c-.374-.027-.615-.229-.748-.57.4-.009.643.19.748.57Z" style="fill:#2f4c79;fill-rule:nonzero" transform="matrix(.12455 0 0 .12455 -12.327 -12.227)"/><path d="M500.812 347.829c-.904-.095-1.495-.397-1.772-1.027-.389-.885-.701-1.808-.986-2.734-.763-2.475-1.454-4.972-2.244-7.438-4.644-14.493-13.989-25.103-27.073-32.569-3.754-2.142-7.736-3.818-11.802-5.305-2.632-.962-5.208-2.067-7.947-2.716-.513-.122-1.02-.374-1.46-.67-.918-.618-.879-2.144.037-2.785.905-.633 1.973-.862 3.009-1.152 4.268-1.192 8.444-2.625 12.497-4.437 12.695-5.674 22.219-14.7 28.757-26.944a72.956 72.956 0 0 0 6.161-15.629c.278-1.042.557-2.091.947-3.093.294-.754.955-1.174 1.792-1.146.704.024 1.28.424 1.521 1.042.43 1.1.745 2.247 1.073 3.384 2.535 8.802 6.399 16.955 11.978 24.244 5.544 7.243 12.478 12.804 20.648 16.851 5.049 2.501 10.393 4.215 15.701 6.034.709.243 1.445.48 2.074.872.951.591.947 2.186-.005 2.763-.634.384-1.377.593-2.079.86-4.435 1.682-8.969 3.086-13.305 5.05-12.661 5.734-22.238 14.725-28.675 27.022-2.904 5.548-5.489 11.247-7.008 17.362-.161.649-.365 1.266-.876 1.689-.312.262-.749.373-.963.472ZM500.488 520.442c-.693.016-1.212-.252-1.418-.757-.406-.993-.708-2.032-1.008-3.065-1.054-3.629-2.231-7.201-3.993-10.571-4.389-8.398-10.817-14.721-19.202-19.076-3.745-1.945-7.69-3.397-11.725-4.614a21.45 21.45 0 0 1-2.129-.744c-.425-.179-.591-.616-.625-1.057-.045-.582.18-1.085.713-1.331.584-.269 1.208-.462 1.827-.645 1.758-.518 3.545-.949 5.282-1.528 14.044-4.686 23.436-14.118 28.41-28.003.726-2.028 1.274-4.12 1.904-6.182.157-.515.267-1.05.484-1.538.227-.511.651-.904 1.242-.872.558.03 1.036.344 1.269.869.217.488.353 1.014.508 1.528.53 1.755 1.034 3.517 1.58 5.266 4.01 12.855 12.438 21.699 24.644 27.099 3.259 1.442 6.664 2.482 10.044 3.59 1.493.49 2.045 1.013 1.93 1.788-.158 1.068-1.081 1.23-1.869 1.545-2.588 1.033-5.173 2.071-7.765 3.093-12.464 4.914-20.872 13.855-25.857 26.147-1.046 2.578-2.56 4.976-3.038 7.787-.107.632-.581 1.149-1.208 1.271ZM744.195 586.24c-.056.47-.339.792-.751.948-1.41.535-2.834 1.036-4.251 1.553-5.237 1.912-9.959 4.633-13.842 8.708-1.873 1.965-3.513 4.094-4.808 6.477-1.751 3.222-3.35 6.514-4.401 10.046-.121.406-.301.8-.504 1.173-.239.439-1.115.438-1.402.025-.63-.909-.82-1.98-1.099-3.014-.992-3.678-2.536-7.101-4.675-10.254-3.618-5.334-8.525-9.104-14.361-11.699-2.262-1.006-4.605-1.828-6.908-2.742a9.48 9.48 0 0 1-1.158-.533c-.454-.256-.478-1.139-.016-1.363a16.407 16.407 0 0 1 2.084-.84c2.566-.838 5.075-1.799 7.499-3.001 6.198-3.072 10.886-7.689 14.157-13.75 1.538-2.849 2.884-5.791 3.755-8.927.086-.311.211-.612.311-.919.171-.527.388-1.071 1.014-1.109.824-.05 1.04.621 1.22 1.25.773 2.703 1.817 5.297 3.038 7.829 4.039 8.379 10.423 14.159 19.148 17.358 1.72.631 3.461 1.203 5.179 1.839.401.145.738.448.771.945ZM315.769 586.251c.037.418-.239.761-.648.926a62.27 62.27 0 0 1-3.634 1.362 41.367 41.367 0 0 0-6.234 2.685c-6.108 3.22-10.715 7.956-13.843 14.088-1.417 2.778-2.828 5.58-3.568 8.648-.05.208-.142.407-.221.607-.213.543-.593.969-1.183.918-.411-.036-.768-.374-.908-.825-.417-1.338-.834-2.676-1.24-4.017-1.765-5.831-4.976-10.733-9.521-14.766-2.852-2.53-6.099-4.449-9.594-5.936-2.081-.885-4.211-1.653-6.32-2.471-.299-.116-.652-.157-.894-.343-.238-.183-.481-.494-.517-.774-.055-.432.151-.857.6-1.036.599-.238 1.22-.42 1.826-.641 1.721-.628 3.466-1.201 5.155-1.908 7.573-3.17 13.182-8.472 16.92-15.762 1.231-2.402 2.291-4.879 3.078-7.466.188-.618.36-1.247.617-1.838.172-.396.524-.735 1.006-.625.276.063.627.271.736.509.311.68.526 1.405.76 2.119 1.383 4.229 3.231 8.233 5.827 11.862 3.95 5.522 9.199 9.345 15.515 11.739 1.814.688 3.662 1.285 5.481 1.958.39.146.789.381.804.987ZM621.734 445.104c-.184-.076-.469-.103-.533-.236-.276-.577-.537-1.171-.714-1.784-2.065-7.182-6.752-11.884-13.659-14.502-1.007-.382-2.01-.775-3.01-1.177-.308-.124-.522-.356-.511-.715.012-.39.318-.552.617-.664 1.212-.452 2.444-.854 3.648-1.327 5.63-2.212 9.513-6.206 11.874-11.729.592-1.385 1.118-2.797 1.706-4.184.066-.157.329-.314.504-.319.18-.004.466.136.53.287.336.789.615 1.603.915 2.407 1.702 4.553 4.251 8.478 8.344 11.26 1.708 1.161 3.563 2.024 5.495 2.731.811.297 1.642.541 2.434.881.251.107.502.417.575.683.088.321-.177.587-.493.71-1.205.471-2.421.914-3.62 1.399-4.669 1.888-8.347 4.936-10.716 9.417-.955 1.806-1.706 3.72-2.543 5.588-.131.291-.189.62-.349.892-.098.167-.325.257-.494.382ZM424.284 604.508c-.19-.066-.489-.08-.55-.208-.321-.673-.643-1.357-.853-2.07-1.964-6.645-6.195-11.218-12.578-13.838-1.295-.531-2.606-1.025-3.892-1.577-.263-.113-.586-.381-.639-.628-.113-.531.369-.698.77-.847a30.579 30.579 0 0 1 1.529-.522c7.211-2.245 11.906-7.071 14.578-14.049.385-1.006.174-2.44 1.627-2.872.978.68.914 1.857 1.329 2.804 1.172 2.67 2.419 5.283 4.333 7.536 2.594 3.054 5.918 4.959 9.603 6.34.903.338 1.809.672 2.697 1.048.397.168.364.869-.049 1.047-.889.383-1.784.761-2.699 1.075-6.41 2.203-10.792 6.525-13.351 12.752-.491 1.194-.923 2.412-1.409 3.608-.068.166-.293.268-.446.401ZM398.205 426.817c-.121.17-.205.409-.369.496-.474.25-.964.489-1.475.645-8.138 2.474-13.002 8.131-15.6 16.002-.1.303-.193.622-.364.884-.099.151-.352.286-.528.278-.174-.008-.427-.17-.492-.327a22.718 22.718 0 0 1-.765-2.116c-1.935-6.402-6.049-10.842-12.14-13.496-1.482-.646-2.994-1.222-4.482-1.854-.286-.121-.573-.348-.415-.734.075-.183.22-.402.388-.469.7-.281 1.417-.523 2.135-.755 6.945-2.251 11.571-6.895 14.128-13.677.342-.906.672-1.817 1.02-2.721.124-.322.376-.498.732-.482.388.018.548.317.666.614.638 1.602 1.182 3.245 1.902 4.809 2.527 5.491 6.769 9.113 12.402 11.177 1.008.369 2.01.756 2.997 1.177.137.057.174.359.26.549ZM595.585 586.005c-.068.187-.084.478-.214.542-.67.335-1.35.668-2.06.899-7.022 2.285-11.815 6.882-14.404 13.794a55.26 55.26 0 0 1-1.227 2.983c-.063.143-.343.266-.519.261-.175-.004-.445-.142-.502-.288a36.168 36.168 0 0 1-.846-2.437c-1.905-6.139-5.88-10.433-11.688-13.066-1.469-.666-3.004-1.189-4.498-1.802-.37-.152-.876-.265-.767-.847.092-.495.529-.614.935-.762 1.315-.479 2.645-.922 3.934-1.464 4.545-1.911 7.937-5.085 10.262-9.43 1.021-1.909 1.806-3.909 2.522-5.943.105-.297.279-.563.681-.553.388.01.57.259.683.558.267.705.472 1.434.759 2.13 1.03 2.496 2.179 4.926 3.873 7.062 2.555 3.222 5.869 5.348 9.684 6.759 1.01.373 2.028.726 3.028 1.124.157.064.243.315.364.48Z" style="fill:#f3f5f8;fill-rule:nonzero" transform="matrix(.12455 0 0 .12455 -12.327 -12.227)"/></svg>