<svg xmlns="http://www.w3.org/2000/svg" xml:space="preserve" style="fill-rule:evenodd;clip-rule:evenodd;stroke-linejoin:round;stroke-miterlimit:2" viewBox="0 0 100 100"><path d="M6.252 97.131c-.937-.947-1.099-1.282-1.096-2.267.003-1.025.072-1.083 1.23-1.035l.991.041.045.691c.031.469.142.791.348 1.002.292.3.392.311 2.907.311 2.536 0 2.612-.008 2.916-.32.25-.257.312-.488.312-1.167 0-1.173-.31-1.507-1.652-1.778l-1.935-.391c-.513-.104-1.481-.294-2.152-.423s-1.306-.303-1.412-.386c-.106-.084-.51-.557-.897-1.053l-.704-.901v-1.262c0-1.386-.079-1.219 1.255-2.653l.676-.726h7.159l.974 1.002.974 1.002.008 1.728h-2.295l-.003-.449c-.002-.247-.119-.594-.261-.772-.254-.318-.291-.322-2.898-.306-2.487.016-2.66.034-2.967.312-.252.228-.326.447-.326.96 0 .908.487 1.41 1.578 1.627 1.301.259 3.595.695 4.612.877.937.167.966.185 1.625 1.033.369.474.73.898.803.941.073.043.13.806.126 1.695l-.006 1.616-.911.933-.911.933H7.062l-.81-.818Zm19.273-1.182v-2l-1.794-3.394a557.968 557.968 0 0 0-2.436-4.566l-.642-1.173h2.575l1.662 3.249c.914 1.787 1.706 3.249 1.759 3.249.148 0 .433-.465 1.382-2.252a328.92 328.92 0 0 1 1.581-2.938l.716-1.308h1.113c.653 0 1.113.058 1.113.139 0 .132-1.32 2.634-2.514 4.768-.298.532-.918 1.683-1.378 2.558l-.836 1.59-.006 4.078h-2.295v-2Zm12.66 1.04-.897-.949v-2.25l2.08.081.075.714c.133 1.269.186 1.29 3.297 1.29 3.202 0 3.156.021 3.156-1.439 0-.834-.042-.973-.395-1.309-.339-.323-.69-.431-2.475-.758-2.284-.419-3.326-.627-3.873-.773-.21-.056-.701-.522-1.183-1.123l-.824-1.027-.001-1.218c-.001-1.165.019-1.242.465-1.788.256-.313.724-.808 1.04-1.1l.574-.53 7.051.021.958 1.019.958 1.019v1.679h-2.295v-.453c0-.249-.1-.591-.223-.76-.218-.3-.293-.307-3.009-.307h-2.786l-.219.408c-.336.626-.281 1.435.13 1.906.266.305.562.441 1.255.576 1.135.221 3.523.665 4.565.848.815.143 1.031.311 2.188 1.702.378.455.395.538.395 2.049v1.575l-.972.929-.972.929-7.166-.011-.897-.949Zm15.171-5.606v-6.567h9.839l.578.588c.318.323.751.795.962 1.047l.384.46-.006 4.379c-.004 3.109-.057 4.485-.179 4.744-.095.201-.507.714-.915 1.141l-.743.775h-9.92v-6.567Zm9.049 4.137c.348-.356.348-.357.394-4.093.046-3.713.044-3.739-.276-4.067-.322-.33-.329-.331-3.597-.331h-3.275v8.848h6.406l.348-.357Zm8.911 1.497-.884-.933-.003-11.267h9.899v2.212h-7.603v3.312l5.94.075.014 2.074-5.954.075v1.292c0 1.098.045 1.347.297 1.656l.297.364h3.648c2.398 0 3.648.049 3.648.142 0 .078-.079.545-.176 1.037l-.176.895h-8.061l-.885-.933Zm14.353-5.599.037-6.532 9.397-.073v2.211l-7.101.074-.04 1.691-.04 1.691 5.532.075.084 2.005-1.62.021c-2.448.031-3.863.091-3.941.166-.038.037-.062 1.224-.052 2.637l.018 2.569h-2.309l.037-6.532ZM9.607 76.556a237.056 237.056 0 0 1-4.318-4.455 108.525 108.525 0 0 0-2.144-2.207c-.714-.687-1.002-1.129-1.003-1.543-.001-.313.932-1.887 1.464-2.469.102-.111.249-.308.328-.436.307-.501 1.591-2.279 1.829-2.533.138-.147.251-.344.251-.438 0-.093.051-.191.113-.216.062-.025.308-.326.545-.668a226.197 226.197 0 0 1 2.922-4.078c.393-.532 1.266-1.745 1.94-2.696.674-.95 1.679-2.35 2.232-3.111.554-.76 1.376-1.907 1.827-2.549.451-.642.917-1.302 1.036-1.467.61-.85 1.792-2.489 2.639-3.657l1.599-2.212c.356-.494 1.13-1.552 1.719-2.35.589-.798 1.177-1.638 1.305-1.866.128-.228.438-.664.688-.968.25-.304.839-1.113 1.309-1.797.47-.684.888-1.275.93-1.313.042-.038.523-.722 1.069-1.521.546-.798 1.077-1.534 1.179-1.634.102-.1.186-.225.186-.277 0-.081.235-.38.858-1.09.08-.092.146-.2.146-.24 0-.068.274-.459 2.234-3.188 1.339-1.864 1.487-2.069 1.606-2.212.204-.248 1.533-2.148 1.828-2.614.158-.25.481-.696.717-.991.237-.295.656-.859.932-1.253a333.356 333.356 0 0 1 3.401-4.726c.133-.176.309-.435.393-.575.334-.559 1.858-2.641 2.039-2.786.106-.085.193-.215.193-.288 0-.074.226-.388.502-.699.276-.311.502-.627.502-.702 0-.075.098-.235.219-.355.12-.12.366-.437.546-.703.664-.982 2.883-4.096 3.301-4.631.599-.768.796-.899 1.35-.899.611 0 .943.341 2.556 2.627 2.291 3.248 2.49 3.526 2.775 3.885.686.861 1.878 2.6 1.878 2.738 0 .083.054.151.119.151.066 0 .335.327.599.726.264.399.678.97.921 1.269.242.299.57.741.728.982.158.242.594.868.97 1.392l1.327 1.852c.354.494.708.973.786 1.063.348.404 3.015 4.225 3.015 4.319 0 .058.131.219.291.359.16.14.854 1.057 1.542 2.038.688.981 1.395 1.981 1.571 2.222.31.423.913 1.258 2.265 3.133.356.494 1.103 1.521 1.659 2.281.556.76 1.43 1.974 1.941 2.696.511.722 1.38 1.936 1.929 2.696.55.76 1.421 1.984 1.937 2.719.516.735 1.031 1.412 1.146 1.503.115.092.208.241.208.331 0 .09.113.285.251.433.275.294.937 1.194 2.131 2.894 1.132 1.612 1.73 2.443 2.041 2.835.151.19.648.875 1.105 1.521.457.646.876 1.206.931 1.244.055.038.215.287.355.553.14.266.3.515.354.553.054.038.633.816 1.286 1.728a239.88 239.88 0 0 0 1.598 2.212c.536.721 1.724 2.364 1.998 2.765.247.36 1.728 2.434 2.367 3.316.237.326.751 1.051 1.142 1.611.391.56.753 1.049.803 1.087.328.249 1.313 1.869 1.381 2.272.101.6-.083.891-1.451 2.292-.558.571-1.724 1.781-2.592 2.689-.868.908-1.869 1.944-2.224 2.301-2.443 2.459-2.46 2.474-2.893 2.474-.391 0-.95-.199-1.124-.401-.08-.093-1.443-.957-2.743-1.74a24.827 24.827 0 0 0-.717-.401 54.759 54.759 0 0 1-1.92-1.158c-2.407-1.505-3.335-2.065-4.662-2.817-.434-.246-.821-.482-.861-.525-.167-.183-3.189-2.04-3.649-2.242-.203-.089-.368-.21-.368-.268 0-.059-.133-.147-.295-.197-.162-.05-.663-.323-1.112-.607-.449-.284-1.172-.735-1.605-1.002-.434-.267-1.353-.838-2.043-1.269-.69-.431-1.281-.783-1.315-.783-.058 0-1.382-.824-3.116-1.94-.444-.286-.944-.561-1.112-.613-.168-.051-.305-.141-.305-.2 0-.059-.171-.182-.381-.274-.386-.169-1.926-1.114-2.058-1.262-.039-.044-.395-.263-.789-.487a48.331 48.331 0 0 1-.947-.546c-.126-.077-.6-.358-1.053-.624a62.632 62.632 0 0 1-1.205-.724c-.21-.132-.527-.313-.705-.402-.178-.089-.323-.214-.323-.278 0-.295-.45-.069-.678.341-.14.252-.835 1.34-1.546 2.419-1.065 1.618-1.372 1.987-1.753 2.11-.656.211-1.134-.053-1.768-.976l-1.256-1.827a29.761 29.761 0 0 1-.95-1.452c-.444-.79-.404-.783-1.388-.228-.505.285-.983.571-1.062.636-.079.064-.595.391-1.148.727-.552.336-1.276.8-1.608 1.032-.332.232-.658.421-.724.421-.066 0-.246.093-.401.206-.154.113-.668.445-1.141.737s-1.327.821-1.896 1.176-1.072.646-1.118.646c-.045 0-.257.117-.471.26-.376.252-1.631 1.03-3.114 1.932-.395.24-.832.513-.973.608-.141.095-.57.358-.955.587-.385.228-1.098.664-1.586.968-.488.304-1.253.775-1.699 1.047l-1.673 1.019a49.14 49.14 0 0 0-1.458.923c-.329.219-.632.399-.674.399-.042 0-.355.177-.694.393-.761.484-1.824 1.137-4.419 2.713-.894.543-3.044 1.875-4.719 2.922-2.213 1.384-2.185 1.387-3.882-.325Zm2.704-.408c.267-.175.574-.318.681-.318.107 0 .195-.052.195-.116s.164-.188.364-.276c.2-.088.442-.226.538-.306.16-.135.684-.462 2.828-1.767 2.636-1.605 3.507-2.148 3.586-2.238.039-.045.33-.227.646-.406a57.794 57.794 0 0 0 2.964-1.821c.447-.295.858-.536.915-.536.057 0 .402-.206.766-.458s.985-.638 1.38-.857c.395-.22.75-.433.789-.475.137-.144.933-.648 1.148-.725.118-.043.742-.412 1.386-.82a523.758 523.758 0 0 1 7.724-4.749 88.597 88.597 0 0 0 1.69-1.057c.456-.294.884-.535.951-.535.067 0 .207-.1.312-.222.105-.122.323-.277.484-.345.236-.099 1.829-1.064 2.947-1.783 1.087-.7 1.646-.978 1.693-.843.03.086.137.236.238.333.101.097.298.392.438.654s.297.508.349.546c.052.038.492.66.977 1.383 1.619 2.411 1.616 2.408 1.823 2.196.102-.105.419-.533.705-.951.286-.418.577-.828.648-.912.071-.083.226-.332.346-.553.193-.356 1.209-1.893 1.718-2.598.178-.246.268-.21 1.631.657.794.504 1.48.917 1.526.917.045 0 .458.238.917.529.459.291 1.222.767 1.696 1.058.473.291 1.474.914 2.224 1.383.75.47 1.677 1.036 2.06 1.258.383.222.964.571 1.291.776.777.487 1.822 1.113 2.889 1.732.473.274.893.542.932.595.039.053.265.2.502.327s.607.338.822.469c.733.445 2.617 1.598 4.055 2.482a199.833 199.833 0 0 0 3.774 2.286c.419.245 1.475.897 2.348 1.448.873.551 1.613 1.002 1.644 1.002.07 0 1.674 1.006 1.774 1.112.039.042.395.253.789.47a47.88 47.88 0 0 1 1.865 1.115c.631.397 1.446.886 1.81 1.088l.662.366.863-.866a88.994 88.994 0 0 0 1.253-1.281 220.66 220.66 0 0 1 4.307-4.463c.71-.709 1.348-1.407 1.417-1.55.133-.276-.462-1.257-1.939-3.197-.383-.504-.697-.961-.697-1.017 0-.089-.36-.559-.899-1.172-.206-.234-1.153-1.57-2.503-3.531-.524-.76-.989-1.414-1.035-1.452-.046-.038-.284-.349-.53-.691-.246-.342-.651-.902-.9-1.244-.249-.342-.939-1.306-1.532-2.143a338.72 338.72 0 0 0-1.934-2.696c-.47-.646-1.159-1.611-1.531-2.143a78.024 78.024 0 0 0-1.408-1.936c-.694-.918-2.9-4.004-3.607-5.046a8.706 8.706 0 0 0-.509-.686c-.1-.111-.407-.525-.683-.919a190.887 190.887 0 0 0-1.649-2.286 101.058 101.058 0 0 1-1.291-1.791c-.378-.583-1.058-1.542-1.853-2.612a55.097 55.097 0 0 1-1.017-1.398c-.224-.348-2.334-3.242-2.761-3.787a64.81 64.81 0 0 1-.832-1.175c-.398-.57-1.011-1.43-1.363-1.911-.352-.481-.707-.99-.791-1.131a7.266 7.266 0 0 0-.397-.578c-.135-.176-.565-.756-.956-1.289-.391-.532-.826-1.121-.966-1.308a77.42 77.42 0 0 1-1.072-1.521 41.716 41.716 0 0 0-1.119-1.557 42.75 42.75 0 0 1-1.06-1.452c-1.635-2.32-2.032-2.871-2.216-3.075-.105-.117-.444-.585-.753-1.042-.49-.723-1.268-1.804-3.034-4.217-.512-.7-1.801-2.512-2.765-3.887-1.001-1.428-.88-1.446-2.193.325-1.652 2.227-1.705 2.3-2.33 3.217-.311.456-.854 1.234-1.207 1.728-.352.494-.95 1.337-1.328 1.873-.378.536-1.147 1.594-1.708 2.35a194.387 194.387 0 0 0-3.28 4.555 137.75 137.75 0 0 1-1.484 2.074 231.17 231.17 0 0 0-1.888 2.627c-.812 1.141-1.523 2.105-1.58 2.143-.058.038-.219.284-.358.546-.14.262-.326.554-.415.648a8.493 8.493 0 0 0-.488.629c-.18.252-.793 1.094-1.363 1.872a52.29 52.29 0 0 0-1.381 1.96c-.19.3-.496.715-.681.923-.185.208-.337.416-.337.464 0 .085-1.197 1.751-1.645 2.29-.126.152-.341.44-.476.64-1.154 1.706-1.476 2.146-2.185 2.983-.078.092-.141.206-.141.254 0 .116-.83 1.261-1.326 1.831-.218.25-.396.525-.396.611 0 .086-.096.255-.214.375-.377.385-.933 1.086-.933 1.175 0 .091-.824 1.276-1.123 1.615-.094.107-.664.909-1.267 1.784-.603.874-1.232 1.752-1.397 1.951a9.616 9.616 0 0 0-.478.622c-.281.415-.908 1.304-1.5 2.128-.301.418-1.047 1.469-1.659 2.335a313.62 313.62 0 0 1-2.582 3.609c-1.109 1.545-2.265 3.135-2.363 3.249-.065.076-.509.698-.986 1.383-1.521 2.182-2.051 2.918-2.712 3.768-.276.355-.631.842-.789 1.081-.158.24-.529.783-.825 1.208-.296.425-.538.823-.538.884 0 .106.674.819 5.711 6.043 2.361 2.448 2.245 2.383 3.168 1.78Zm-1.108-4.162-.577-.664 4.04-3.795c4.878-4.581 7.401-6.947 16.592-15.56 1.615-1.513 3.956-3.714 5.203-4.89 1.246-1.176 2.354-2.186 2.46-2.243.14-.076.607.498 1.683 2.069.819 1.196 1.541 2.299 1.606 2.451.064.152.232.401.373.553.141.152.504.681.808 1.175.303.494.618.942.7.995.081.053.118.121.08.15-.295.237-3.934 2.524-5.341 3.358-.376.223-1.017.638-1.425.923-.408.285-.821.518-.919.518-.098 0-.199.048-.225.106-.026.059-.403.329-.837.6a225.025 225.025 0 0 0-3.802 2.426c-.237.161-.818.526-1.291.812-.473.286-1.104.682-1.402.88-.298.198-.721.453-.942.567-.22.114-.655.381-.965.594a75.78 75.78 0 0 1-1.999 1.273c-.789.488-1.531.95-1.65 1.028-1.616 1.055-3.455 2.22-3.503 2.22-.034 0-.502.281-1.041.625l-1.248.795a3.639 3.639 0 0 0-.433.321 3.066 3.066 0 0 1-.52.334c-.196.101-1.29.779-2.433 1.508a485.89 485.89 0 0 1-2.246 1.428c-.105.064-.387-.148-.746-.56Zm76.943.509c-.079-.071-.563-.387-1.076-.703a192.23 192.23 0 0 1-2.196-1.379c-.695-.443-1.298-.805-1.34-.805-.042 0-.224-.109-.405-.242-.385-.283-.614-.432-1.581-1.026-.395-.242-1.253-.787-1.908-1.211a106.353 106.353 0 0 0-2.104-1.323c-.502-.304-1.581-.983-2.396-1.508a163.782 163.782 0 0 0-2.271-1.438c-.434-.266-1.37-.849-2.08-1.295l-1.506-.946-2.224-1.398-3.73-2.344a165.574 165.574 0 0 1-2.367-1.508 50.503 50.503 0 0 0-1.363-.863c-1.552-.942-2.298-1.415-2.367-1.5-.039-.049-.27-.187-.513-.307-.868-.428-.881-.552-.166-1.583.356-.513.753-1.136.882-1.383.129-.247.297-.449.374-.449.077 0 .14-.065.14-.144 0-.079.121-.312.268-.518.255-.357.862-1.269 2.108-3.171.31-.474.608-.862.662-.864.054-.002.798.666 1.653 1.483 2.665 2.546 12.119 11.437 12.239 11.509.11.067 4.837 4.496 10.327 9.678a573.983 573.983 0 0 0 3.507 3.289c.438.402.797.778.797.835 0 .237-1.225 1.237-1.363 1.113ZM7.963 68.651l-.533-.526.443-.606c.244-.334.682-.949.973-1.367.292-.418.577-.793.635-.833.057-.04.19-.226.295-.415.105-.188.465-.716.801-1.172a142.571 142.571 0 0 0 2.564-3.595c.528-.76.999-1.414 1.045-1.452.047-.038.371-.505.721-1.037a25.13 25.13 0 0 1 1.073-1.514c.24-.3.502-.653.581-.783.079-.13.363-.537.631-.905.493-.676 1.307-1.82 3.179-4.471.564-.798 1.083-1.472 1.154-1.498a.201.201 0 0 0 .128-.174c0-.168 1.089-1.703 1.364-1.924.118-.094.214-.245.214-.335 0-.09.114-.285.254-.432.14-.147.462-.579.717-.959.255-.38.562-.816.683-.968.121-.152.585-.805 1.032-1.452.447-.646.882-1.244.968-1.327.086-.084.38-.509.654-.946a19.21 19.21 0 0 1 1.036-1.468c.296-.371.538-.727.538-.791 0-.064.114-.237.254-.384.243-.256 1.369-1.825 1.965-2.738.155-.238.668-.962 1.14-1.608.471-.646 1.212-1.673 1.645-2.281a545.36 545.36 0 0 0 2.456-3.465c.118-.171.569-.799 1.001-1.396.913-1.26 2.162-3.022 2.374-3.347.303-.467.938-1.364 1.628-2.299.392-.532 1.411-1.963 2.263-3.18.852-1.217 1.955-2.75 2.45-3.407.495-.657.901-1.238.901-1.292 0-.053.274-.449.61-.88.335-.43.776-1.031.979-1.335 1.267-1.893 1.22-1.858 1.62-1.21.157.255.81 1.181 2.171 3.077.355.494.952 1.329 1.327 1.856.375.527.811 1.127.969 1.334.582.763 1.219 1.665 1.219 1.724 0 .034.21.333.466.666.627.814.843 1.11 1.574 2.163.343.494.991 1.406 1.439 2.026.449.62 1.415 1.974 2.147 3.009a664.466 664.466 0 0 0 2.447 3.435c.614.854 1.727 2.424 2.475 3.489 1.469 2.092 2.939 4.12 3.307 4.562.127.152.299.416.383.588.084.171.197.311.252.311.054 0 .215.249.357.553.142.304.308.553.368.553s.368.389.684.864c.905 1.359 3.193 4.587 3.307 4.665.056.039.406.506.776 1.038s1.097 1.559 1.616 2.281c.518.722 1.42 1.998 2.004 2.834.584.836 1.514 2.143 2.067 2.903.553.76 1.573 2.181 2.266 3.157.693.976 1.562 2.189 1.931 2.696.369.507.782 1.108.918 1.336.136.228.45.664.699.968.249.304.706.926 1.016 1.383.31.456.758 1.074.996 1.373.238.299.562.747.72.996.158.249.76 1.116 1.339 1.927l1.052 1.474-.47.468c-.259.257-.511.468-.561.468-.107 0-4.993-4.726-11.429-11.053a4949.81 4949.81 0 0 0-9.169-8.986 6911.823 6911.823 0 0 1-6.886-6.736l-7.863-7.707-5.583-5.471h-1.458l-2.869 2.803a2738.989 2738.989 0 0 0-6.384 6.265c-9.532 9.389-14.493 14.28-16.439 16.207a961.623 961.623 0 0 1-4.363 4.287 3315.495 3315.495 0 0 0-6.471 6.341l-4.247 4.172-.533-.526Zm41.646-14.492a17.147 17.147 0 0 1-.409-.657c-.145-.268-.908-1.383-.993-1.452-.143-.115-.732-.951-.732-1.039 0-.081-1.598-2.479-1.85-2.776a4.966 4.966 0 0 1-.379-.622c-.138-.259-.294-.502-.347-.54-.053-.038-.364-.474-.692-.968l-1.239-1.866-.644-.968 2.361-.069 2.361-.069.565-.83c.311-.456.687-.985.836-1.175.149-.19.443-.626.653-.968.21-.342.504-.773.652-.957l.271-.335.252.473c.138.26.294.504.347.542.117.085.755.985 1.64 2.312l.666.999 4.727.076-.602.899a1749.618 1749.618 0 0 1-3.809 5.668c-.591.874-1.386 2.056-1.768 2.627-.382.57-.754 1.105-.826 1.188a4.398 4.398 0 0 0-.365.588c-.129.24-.258.436-.288.436-.03 0-.204-.233-.388-.518Z" style="fill:#fff;fill-rule:nonzero"/></svg>